<?xml version="1.0" encoding="UTF-8"?>
<svg id="Calque_2" data-name="Calque 2" xmlns="http://www.w3.org/2000/svg" viewBox="0 0 2000 2310">
  <defs>
    <style>
      .cls-1 {
        fill: #fff;
      }

      .cls-2 {
        fill: #3c719d;
      }

      .cls-3 {
        fill: #3673a5;
      }

      .cls-4 {
        fill: none;
        stroke: red;
        stroke-miterlimit: 10;
        stroke-width: 2px;
      }

      .cls-5 {
        fill: #646464;
      }
    </style>
  </defs>
  <g id="repères">
    <g>
      <line class="cls-4" x1="41" y1="2224" x2="41" y2="2310"/>
      <line class="cls-4" y1="2267" x2="80" y2="2267"/>
    </g>
    <g>
      <line class="cls-4" x1="1961" y1="2224" x2="1961" y2="2310"/>
      <line class="cls-4" x1="1920" y1="2267" x2="2000" y2="2267"/>
    </g>
    <g>
      <line class="cls-4" x1="1961" x2="1961" y2="86"/>
      <line class="cls-4" x1="1920" y1="43" x2="2000" y2="43"/>
    </g>
    <g>
      <line class="cls-4" x1="41" x2="41" y2="86"/>
      <line class="cls-4" y1="43" x2="80" y2="43"/>
    </g>
    <g>
      <line class="cls-4" x1="1961" y1="1095" x2="1961" y2="1181"/>
      <line class="cls-4" x1="1920" y1="1138" x2="2000" y2="1138"/>
    </g>
    <g>
      <line class="cls-4" x1="41" y1="1095" x2="41" y2="1181"/>
      <line class="cls-4" y1="1138" x2="80" y2="1138"/>
    </g>
    <g>
      <line class="cls-4" x1="1002" y1="2224" x2="1002" y2="2310"/>
      <line class="cls-4" x1="961" y1="2267" x2="1041" y2="2267"/>
    </g>
    <g>
      <line class="cls-4" x1="1002" x2="1002" y2="86"/>
      <line class="cls-4" x1="961" y1="43" x2="1041" y2="43"/>
    </g>
  </g>
  <g id="Ombres_BRUTES" data-name="Ombres BRUTES">
    <path class="cls-5" d="M189.17,2008.13c1.75,.68,3.5,1.34,5.26,1.96-1.76-.63-3.51-1.29-5.26-1.97h0Z"/>
    <path class="cls-5" d="M487.77,1684.52c-.58-.33-1.42-.31-2.65-.02,1.22-.29,2.06-.32,2.65,.02Z"/>
    <path class="cls-5" d="M533.69,2178.32c-.4-.06-.77-.17-1.11-.3,.35,.13,.72,.23,1.11,.3Z"/>
    <path class="cls-5" d="M1104.36,1692.53c-12.88,2.72-25.44,6.87-37.65,12.56h0c12.2-5.71,24.77-9.85,37.65-12.56Z"/>
    <path class="cls-5" d="M1114.08,1690.75c-2.45,.38-4.88,.81-7.3,1.28,2.42-.48,4.86-.91,7.3-1.28Z"/>
    <path class="cls-5" d="M1121.44,1689.76c-2.46,.28-4.92,.61-7.36,.99,2.45-.39,4.9-.72,7.36-.99Z"/>
    <path class="cls-5" d="M1155.62,1689.14c-1.44-.16-2.89-.29-4.35-.4,1.47,.1,2.92,.23,4.35,.4Z"/>
    <path class="cls-5" d="M1187,2011.31c-.29-.1-.54-.22-.75-.39,.22,.16,.47,.28,.75,.39Z"/>
    <path class="cls-5" d="M1452.3,1683.62c2.08,.22,4.15,.49,6.22,.8-2.06-.32-4.14-.58-6.22-.8Zm6.22,.8c1.5,.22,3,.47,4.49,.75-1.49-.27-2.99-.53-4.49-.75Zm6.72,1.18c2.22,.45,4.43,.95,6.62,1.5-2.19-.56-4.4-1.06-6.62-1.5Z"/>
    <path class="cls-5" d="M1630.38,2010.4c.44,.51,1.05,.84,1.9,1.05-.86-.2-1.47-.53-1.9-1.05Z"/>
    <path class="cls-5" d="M1800.98,1683.94c-1.53-.2-3.06-.37-4.6-.53,1.54,.15,3.07,.32,4.6,.53Z"/>
    <path class="cls-5" d="M764.9,1722.46c-.26-.34-.46-.73-.61-1.17,.16,.44,.36,.83,.61,1.17Z"/>
    <path class="cls-5" d="M768.2,1724.31c-1.5-.24-2.6-.85-3.3-1.85,.7,.95,1.75,1.55,3.16,1.81,.04,.01,.09,.03,.14,.04Z"/>
    <path class="cls-5" d="M800.71,1732.45v1.18c0-.41,0-.8-.01-1.18h.01Z"/>
    <path class="cls-5" d="M852.13,1583.38c-.41-.03-.8,.01-1.17,.08,.38-.09,.77-.13,1.17-.08Z"/>
    <path class="cls-5" d="M853.21,1583.64s-.06-.02-.09-.02c-.25-.1-.49-.17-.73-.21,.27,.03,.54,.11,.82,.23Z"/>
    <path class="cls-1" d="M1250.07,1268.29c.03,2-.02,3.97-.16,5.89-.02,.36-.05,.73-.08,1.09-.11,1.24-.25,2.47-.42,3.68-.06,.38-.12,.76-.18,1.14-.01,.09-.03,.19-.04,.28-.09,.48-.17,.95-.26,1.42-.09,.49-.19,.98-.3,1.46-.09,.43-.19,.86-.3,1.29-.01,.09-.04,.18-.06,.27-.08,.33-.16,.66-.25,.98-.18,.69-.37,1.37-.58,2.04-.1,.36-.21,.71-.33,1.07-.15,.45-.3,.91-.46,1.36-.13,.39-.28,.78-.42,1.17-.06,.17-.13,.34-.19,.51-.13,.33-.26,.65-.39,.97-.18,.44-.36,.87-.55,1.3-.19,.43-.38,.85-.58,1.28-.2,.44-.41,.87-.63,1.3-.4,.81-.83,1.61-1.27,2.39-.23,.42-.47,.84-.72,1.25-.67,1.13-1.39,2.24-2.14,3.31-.27,.39-.55,.77-.83,1.15-.27,.37-.54,.73-.82,1.08-.55,.71-1.12,1.4-1.7,2.08-.58,.67-1.17,1.33-1.77,1.97-.01,.01-.02,.03-.04,.04-.3,.31-.61,.63-.91,.93-.32,.32-.63,.63-.96,.94-.32,.3-.64,.61-.97,.91-.33,.3-.66,.59-.99,.88-.34,.29-.67,.58-1.01,.86-.35,.29-.69,.57-1.04,.84-.69,.55-1.4,1.08-2.12,1.6-1.44,1.04-2.93,2.01-4.46,2.9-.57,.34-1.15,.67-1.74,.98-1.17,.64-2.36,1.24-3.58,1.79-.61,.28-1.22,.55-1.84,.8-1.03,.43-2.08,.84-3.13,1.21-1.06,.38-2.13,.72-3.21,1.04-1.3,.39-2.61,.73-3.93,1.02-.89,.19-1.78,.37-2.68,.54-.54,.1-1.09,.19-1.64,.28h-.05c-.55,.09-1.1,.16-1.65,.23-.04,0-.08,.01-.12,.01-.55,.07-1.11,.13-1.67,.19-.05,0-.1,0-.16,.02-.02,0-.04,0-.07,.01-.48,.04-.96,.08-1.45,.11-.1,.02-.21,.02-.31,.03-.58,.04-1.16,.07-1.74,.09-.05,.01-.11,.01-.16,.01-.6,.03-1.19,.04-1.79,.05-33.13,.36-59.66-26.9-59.2-59.71,.46-32.83,26.69-58.64,59.39-58.44,.6,.01,1.21,.03,1.81,.05,.24,.01,.48,.03,.73,.05,.51,.02,1.02,.05,1.54,.1,.57,.04,1.15,.1,1.72,.16,.23,.02,.45,.05,.68,.08,.53,.06,1.06,.13,1.58,.21,.06,0,.11,.01,.16,.02,.6,.08,1.19,.18,1.78,.29,.1,0,.2,.03,.29,.04,1.35,.25,2.69,.53,4.02,.86,6.1,1.51,12.08,3.92,17.57,7.27h.01c.16,.09,.3,.2,.46,.3,.57,.36,1.14,.73,1.7,1.1,1.13,.76,2.23,1.55,3.3,2.39,.54,.42,1.07,.85,1.59,1.29,.19,.16,.38,.31,.56,.47,.55,.47,1.08,.97,1.61,1.47,.32,.29,.63,.58,.94,.88,.48,.47,.95,.96,1.41,1.45,.35,.37,.69,.74,1.03,1.12,.42,.47,.83,.94,1.24,1.42,.39,.47,.76,.96,1.14,1.44,.33,.43,.67,.85,.99,1.3,.35,.47,.69,.95,1.02,1.43,.33,.49,.65,.98,.97,1.48s.62,1,.92,1.51c.6,1,1.16,2.03,1.68,3.09,.01,0,.02,.03,.02,.05,.27,.54,.53,1.08,.78,1.63,.26,.55,.5,1.11,.74,1.68,.23,.55,.45,1.1,.67,1.67,.02,.03,.03,.06,.03,.09,.21,.54,.41,1.09,.6,1.65,.22,.61,.42,1.23,.61,1.87,.17,.54,.33,1.09,.48,1.64,.14,.51,.28,1.04,.41,1.58,.09,.36,.18,.73,.26,1.1,.11,.46,.21,.93,.3,1.41,.13,.64,.25,1.28,.36,1.93,.11,.66,.22,1.34,.31,2.02,.11,.79,.21,1.59,.28,2.41,.07,.58,.12,1.17,.16,1.76,.06,.71,.1,1.43,.13,2.15,.04,.73,.06,1.46,.07,2.2Z"/>
    <polygon class="cls-2" points="1243.01 428.15 1243 428.15 1243 428.14 1243.01 428.15"/>
    <path class="cls-3" d="M462.31,1078.92c2.19,.94,4.4,1.83,6.63,2.67-2.23-.83-4.44-1.72-6.63-2.67Z"/>
    <path class="cls-3" d="M678.32,383.75c.24,.13,.5,.25,.81,.34-.31-.09-.58-.2-.81-.34Z"/>
    <path class="cls-3" d="M877.35,244.66c-.28,27.81-21.33,58.7-59.67,58.47-39.83-.25-59.98-33.28-58.99-60.08,.41-32.91,27.48-59.1,60.56-58.59,32.19,.49,58.42,27.82,58.1,60.2Z"/>
    <path class="cls-3" d="M1005.41,393.45c-.05,5.19-.03,10.37,0,15.56-.03-5.18-.05-10.37,0-15.56h0Z"/>
    <path class="cls-1" d="M877.35,244.66c-.28,27.81-21.33,58.7-59.67,58.47-39.83-.25-59.98-33.28-58.99-60.08,.41-32.91,27.48-59.1,60.56-58.59,32.19,.49,58.42,27.82,58.1,60.2Z"/>
    <path d="M1204.71,1326.76c1.32-.29,2.63-.63,3.93-1.02-1.3,.38-2.61,.72-3.93,1.02Zm7.14-2.06c1.05-.37,2.1-.78,3.13-1.21-1.03,.43-2.08,.83-3.13,1.21Zm4.97-2.01c1.22-.55,2.41-1.15,3.58-1.79-1.17,.63-2.37,1.23-3.58,1.79Zm5.32-2.77c1.53-.89,3.02-1.86,4.46-2.9-1.44,1.03-2.93,2-4.46,2.9Zm3.32-99.21c1.13,.76,2.23,1.55,3.3,2.39-1.07-.84-2.17-1.64-3.3-2.39Zm-57.44,56.91c.44-31.44,24.52-56.42,55.27-58.31-5.49-3.35-11.47-5.76-17.57-7.27-1.33-.33-2.67-.61-4.02-.86-.09-.01-.19-.03-.29-.04-.59-.11-1.18-.21-1.78-.29-.05-.01-.1-.02-.16-.02-.52-.08-1.05-.15-1.58-.21-.23-.03-.45-.06-.68-.08-.57-.06-1.15-.12-1.72-.16-.52-.05-1.03-.08-1.54-.1-.25-.02-.49-.04-.73-.05-.6-.02-1.21-.04-1.81-.05-32.7-.2-58.93,25.61-59.39,58.44-.46,32.81,26.07,60.07,59.2,59.71,.6,0,1.19-.02,1.79-.05,.05,0,.11,0,.16-.01,.58-.02,1.16-.05,1.74-.09,.1-.01,.21-.01,.31-.03-16.61-10.63-27.5-29.43-27.2-50.53Zm28.65,50.42s.05-.01,.07-.01c.06-.01,.11-.01,.16-.02-.56,.05-1.12,.1-1.68,.14,.49-.03,.97-.07,1.45-.11Zm45.51-89.68c.59,1,1.15,2.03,1.68,3.09-.52-1.06-1.08-2.09-1.68-3.09Z"/>
    <path d="M1719.67,732.58c-1.25-28.58-3.74-56.94-8.43-85.13-6.62-39.89-17.47-78.49-36.54-114.38-18.13-34.13-42.16-62.91-76.35-82.2-12.05-6.79-24.55-12.15-37.6-15.53-.32-.09-.65-.16-.97-.25-.32-.08-.65-.16-.97-.24-.33-.09-.65-.16-.97-.24-.33-.09-.66-.16-.98-.25-.32-.08-.65-.16-.97-.24-.32-.09-.65-.16-.97-.24-.33-.09-.65-.16-.98-.25-.32-.08-.65-.16-.97-.24-.32-.09-.65-.16-.97-.24-.33-.09-.65-.16-.98-.25-.32-.08-.65-.16-.97-.24-.32-.09-.65-.16-.97-.24-.33-.09-.65-.16-.97-.25-.33-.08-.65-.16-.98-.24-.32-.09-.65-.16-.97-.24-.32-.09-.65-.16-.97-.25-.33-.08-.65-.16-.98-.24-.32-.09-.65-.16-.97-.24-.32-.09-.65-.16-.97-.25-.33-.08-.65-.15-.98-.24-.32-.08-.65-.16-.97-.24-.32-.09-.65-.16-.97-.25-.33-.08-.65-.15-.97-.24-.33-.08-.65-.16-.98-.24-.32-.09-.65-.16-.97-.25-.32-.08-.65-.15-.98-.24-.32-.08-.64-.16-.97-.24-.32-.09-.65-.16-.97-.24-.32-.09-.65-.16-.97-.25-.33-.08-.65-.16-.97-.24-.33-.09-.66-.16-.98-.24-.32-.09-.65-.16-.97-.25-.32-.08-.65-.16-.97-.24-.33-.09-.65-.16-.98-.24-.32-.09-.65-.16-.97-.25-.27-.07-.54-.13-.81-.2-.05-.01-.11-.03-.16-.04t-.02-.01c-1.23-.32-2.47-.63-3.71-.93-1.87-.44-3.75-.84-5.64-1.2-.62-.11-1.24-.23-1.86-.33-.55-.1-1.1-.19-1.66-.28-.73-.12-1.45-.23-2.18-.33-.64-.09-1.28-.18-1.92-.25-.5-.07-1-.13-1.51-.18-.18-.02-.37-.04-.57-.07-.59-.06-1.18-.12-1.77-.17-.5-.05-.99-.09-1.49-.13-.31-.03-.63-.05-.95-.07-.44-.04-.88-.07-1.33-.09-.08,0-.17,0-.27-.02-.6-.03-1.2-.07-1.8-.09-1.3-.06-2.61-.09-3.93-.11-36.32-.39-72.65,.06-108.98,.16-1,0-2.01,.1-3-.02-4.51-.53-7.04,.92-6.51,5.99,.24,2.3,.03,4.66,.03,6.99,0,48,.1,95.99-.03,143.99-.08,27.78-4.33,54.91-13.64,81.18-15.31,43.23-41.84,76.92-83.69,97.09-27.7,13.35-57.39,18.69-87.97,18.73-106.99,.13-213.98,.21-320.97-.06-29.25-.07-57.63,4.1-85.03,14.17-29.9,10.99-55.98,27.64-75.54,53.38-22.58,29.71-32.78,63.8-32.96,100.56-.49,99.66-.17,199.32-.17,298.98,0,3,.55,6.14-.14,8.97-2.45,10.06-.38,19.98,1.48,29.59,6.18,31.93,23.18,57.59,47.65,78.65,28.33,24.36,61.55,39.19,96.94,49.63,1.51,.44,3.01,.88,4.52,1.3,1.13,.32,2.26,.64,3.39,.95,2.26,.62,4.53,1.23,6.8,1.82,1.14,.29,2.27,.58,3.41,.87,.33,.08,.65,.16,.97,.24,.33,.09,.65,.16,.98,.25,.32,.08,.65,.16,.97,.24,.32,.08,.65,.16,.97,.24,.33,.09,.65,.16,.98,.25,.32,.08,.65,.16,.97,.24,.32,.08,.65,.16,.97,.24,.33,.09,.65,.16,.97,.25,.33,.08,.65,.16,.98,.24,.32,.08,.65,.16,.97,.24,.33,.09,.65,.16,.97,.25,.33,.08,.65,.16,.98,.24,.32,.08,.65,.16,.97,.24,.33,.08,.65,.16,.97,.25,.33,.08,.65,.16,.97,.24,.33,.08,.66,.16,.98,.24,.32,.08,.65,.16,.97,.25,.33,.08,.65,.16,.97,.24,.33,.08,.65,.16,.98,.24,.32,.08,.65,.16,.97,.25,.33,.08,.65,.16,.97,.24,.33,.08,.65,.16,.98,.24,.32,.08,.65,.16,.97,.24,.33,.09,.65,.17,.97,.25,.33,.08,.65,.16,.97,.24,.33,.08,.66,.16,.98,.24,.32,.09,.65,.17,.97,.25,.33,.08,.65,.16,.97,.24,.33,.08,.65,.16,.98,.24,.32,.09,.65,.17,.97,.25,.33,.08,.65,.16,.97,.24,.33,.08,.65,.16,.98,.24,.32,.09,.65,.17,.97,.25,.32,.08,.65,.16,.97,.24,.33,.08,.65,.16,.97,.24,.33,.09,.65,.17,.98,.25,40.99,10.41,82.87,15.28,125.19,16.74,52.22,1.81,104.38,1.4,156.36-5.19,37.03-4.69,73.49-11.79,108.37-25.23,27.49-10.59,53.26-24.39,73.84-46.22,19.24-20.39,30.34-43.92,29.95-72.66-.65-48.61-.55-97.23-.79-145.85-.03-6.16-.08-7.93-3.17-8.49-.28-.1-.61-.18-.97-.24-.28-.1-.61-.18-.97-.24-.28-.11-.62-.18-.98-.25-.28-.1-.61-.18-.97-.24-.28-.1-.61-.18-.97-.24-.28-.11-.61-.18-.97-.25-.29-.1-.62-.18-.98-.24-.28-.1-.61-.18-.97-.24-.28-.11-.61-.18-.97-.25-.29-.1-.62-.18-.98-.24-.28-.1-.61-.18-.97-.24-.28-.11-.61-.18-.97-.25-.28-.1-.62-.18-.98-.24-.28-.1-.61-.18-.97-.24-.28-.11-.61-.18-.97-.25-.28-.1-.61-.18-.97-.24-.29-.1-.62-.18-.98-.24-.28-.11-.61-.18-.97-.25-.28-.1-.61-.17-.97-.24-.28-.1-.62-.18-.98-.24-.28-.11-.61-.18-.97-.25-.28-.1-.61-.17-.97-.24-.28-.1-.62-.18-.98-.24-.28-.1-.61-.18-.97-.25-.28-.1-.61-.17-.97-.24-.28-.1-.61-.18-.97-.24-.29-.1-.62-.18-.98-.25-.28-.1-.61-.17-.97-.24-.28-.1-.61-.18-.97-.24-.28-.1-.62-.18-.98-.24-.28-.11-.61-.18-.97-.25-.28-.1-.61-.18-.97-.24-.28-.1-.62-.18-.97-.24-.29-.11-.62-.18-.98-.25-.28-.1-.61-.18-.97-.24-.27-.1-.59-.18-.94-.23-.01-.01-.02-.01-.03-.01-.2-.08-.43-.14-.67-.19-.1-.02-.19-.04-.3-.06-.18-.03-.36-.06-.54-.08-.2-.03-.41-.05-.64-.07h-.01c-.22-.02-.46-.03-.71-.05-.25,0-.5-.02-.77-.03-.33-.01-.68-.02-1.05-.03-.55,0-1.14-.01-1.78-.02-2-.03-4,0-6,0-92.89,0-185.79,0-278.68-.01,.1-8.6-.04-17.21,.03-25.81,.1-12.25-1.65-11.18,11.24-11.18,77.33-.02,154.65-.01,231.98-.01s150.65,0,225.98-.01c6.97,0,13.88-.33,20.85-1.18,43.33-5.25,79.98-24.05,110.31-54.89,23.15-23.53,39.42-51.67,51.43-82.37,21.12-54,27.38-110.62,29.36-167.9,.59-17.25-.07-34.57-.83-51.88Zm-528.26,477.6c.6,.01,1.21,.03,1.81,.05,.25,.01,.49,.03,.73,.05,.51,.02,1.02,.05,1.54,.1,.57,.04,1.14,.09,1.72,.16,.23,.02,.46,.05,.68,.08,.53,.05,1.05,.12,1.58,.21,.06,0,.11,.01,.16,.02,.59,.08,1.19,.17,1.78,.29,.1,0,.2,.03,.29,.04,1.34,.24,2.68,.52,4.02,.86,13.41,3.28,26.21,10.97,34.57,23.33,.33,.49,.65,.98,.97,1.48,.33,.49,.63,1,.92,1.51,.6,1,1.16,2.03,1.68,3.09,.01,0,.02,.03,.02,.05,.28,.53,.54,1.08,.78,1.63,.26,.55,.5,1.11,.74,1.68,.24,.55,.46,1.11,.67,1.67,.02,.03,.03,.06,.03,.09,.21,.54,.41,1.09,.6,1.65,.22,.61,.42,1.23,.61,1.87,.17,.54,.33,1.08,.48,1.64,.14,.51,.28,1.04,.41,1.58,.09,.36,.18,.73,.26,1.1,.11,.46,.21,.93,.3,1.41,.13,.63,.25,1.28,.36,1.93,.12,.67,.22,1.34,.31,2.02,.11,.79,.21,1.59,.28,2.41,.07,.58,.12,1.17,.16,1.76,.06,.71,.1,1.43,.13,2.15,.04,.73,.06,1.46,.07,2.2,.03,2-.02,3.97-.16,5.89-.02,.36-.05,.73-.08,1.09-.11,1.24-.25,2.47-.42,3.68-.06,.38-.12,.76-.18,1.14-.01,.09-.03,.19-.04,.28-.09,.48-.17,.95-.26,1.42-.09,.49-.19,.98-.3,1.46-.09,.43-.19,.86-.3,1.29-.01,.09-.04,.18-.06,.27-.08,.33-.16,.66-.25,.98-.18,.69-.37,1.37-.58,2.04-.1,.36-.21,.71-.33,1.07-.14,.46-.3,.91-.46,1.36-.13,.39-.28,.78-.42,1.17-.06,.17-.13,.34-.19,.51-.13,.33-.26,.65-.39,.97-.18,.44-.36,.87-.55,1.3-.18,.43-.38,.86-.58,1.28-.2,.44-.41,.87-.63,1.3-.4,.81-.83,1.61-1.27,2.39-.23,.42-.47,.84-.72,1.25-.67,1.13-1.39,2.24-2.14,3.31-.27,.39-.55,.77-.83,1.15-.26,.37-.54,.73-.82,1.08-.54,.71-1.11,1.41-1.7,2.08-.57,.68-1.16,1.33-1.77,1.97-.01,.01-.02,.03-.04,.04-.29,.31-.59,.62-.91,.93-.31,.32-.63,.64-.96,.94-.32,.32-.64,.62-.97,.91-.32,.31-.66,.6-.99,.88-.33,.3-.67,.59-1.01,.86-.34,.3-.69,.58-1.04,.84-.69,.56-1.4,1.09-2.12,1.6-1.44,1.04-2.93,2.01-4.46,2.9-.57,.34-1.15,.67-1.74,.98-1.17,.64-2.36,1.24-3.58,1.79-.61,.28-1.22,.55-1.84,.8-1.03,.43-2.08,.84-3.13,1.21-1.06,.38-2.13,.72-3.21,1.04-1.3,.39-2.61,.73-3.93,1.02-.89,.21-1.78,.39-2.68,.54-.54,.1-1.09,.19-1.64,.28h-.05c-1.19,.19-2.39,.34-3.6,.45-.02,0-.04,0-.07,.01-.58,.06-1.17,.11-1.76,.14-.58,.05-1.16,.08-1.74,.09-.05,.01-.11,.01-.16,.01-.6,.03-1.19,.04-1.79,.05-33.13,.36-59.66-26.9-59.2-59.71,.46-32.83,26.69-58.64,59.39-58.44Z"/>
    <g>
      <path d="M413.5,1849.38c-1.4-25.49-5.5-50.25-14.77-74.02-8.83-22.63-21.26-42.99-39.99-58.9-12.31-10.44-25.94-16.8-40.33-20.44-.33-.09-.65-.16-.98-.25-.32-.08-.65-.16-.97-.24-.33-.08-.65-.16-.98-.24-.32-.09-.64-.16-.97-.25-.32-.08-.65-.16-.97-.24-.32-.08-.65-.16-.97-.24-.33-.09-.65-.16-.98-.25-.32-.08-.65-.16-.97-.24-.32-.08-.65-.16-.97-.24-.33-.09-.65-.16-.97-.25-.33-.08-.65-.16-.98-.24-.32-.08-.65-.16-.97-.24-.33-.09-.65-.16-.98-.25-.32-.08-.64-.16-.97-.24-.32-.08-.65-.16-.97-.24-.32-.09-.65-.16-.97-.25-.33-.08-.65-.16-.97-.24-.33-.08-.66-.16-.98-.24-.32-.09-.65-.16-.97-.24-.33-.09-.65-.17-.98-.25-.32-.08-.64-.16-.97-.24-.32-.09-.65-.16-.97-.24-.33-.09-.65-.17-.98-.25-.32-.08-.64-.16-.97-.24-.32-.09-.65-.16-.97-.24-.32-.09-.65-.17-.97-.25-.33-.08-.65-.16-.97-.24-.33-.09-.66-.16-.98-.24-.32-.09-.65-.17-.97-.25-.33-.08-.65-.16-.98-.24-.32-.08-.64-.16-.97-.24-.32-.09-.65-.16-.97-.25-.33-.08-.65-.16-.97-.24-.33-.08-.65-.16-.98-.24-.32-.09-.65-.16-.97-.25-.26-.06-.52-.13-.78-.19-.06-.02-.13-.03-.19-.05-.77-.2-1.55-.4-2.33-.58-.78-.19-1.56-.37-2.34-.54-.79-.17-1.57-.34-2.36-.49-1.57-.32-3.15-.6-4.74-.85-.68-.11-1.37-.22-2.05-.32-2.13-.31-4.27-.57-6.42-.78-1.19-.12-2.38-.23-3.58-.32-.53-.04-1.06-.08-1.6-.12-.43-.03-.87-.06-1.3-.09-.66-.03-1.32-.07-1.98-.1-.83-.05-1.67-.08-2.51-.11-.68-.03-1.35-.05-2.04-.06-.47-.02-.94-.03-1.42-.03-.84-.02-1.69-.03-2.53-.03-2.23-.02-4.47,0-6.72,.05-20.54,.48-41.09,3.48-60.95,9.47-26.42,7.96-50.89,19.39-71.3,38.69-6.2,5.88-8.08,11.95-8.07,20.17,.21,131.97,.15,263.95,.15,395.92,0,1.34,0,2.67,0,4,.09,9.72,.08,9.76,8.88,12.89,11.61,4.13,23.22,8.24,34.87,12.23,.99,.34,1.96,.81,2.97,1.25,.38,.16,.76,.31,1.16,.45,.24,.09,.48,.17,.73,.24,.24,.07,.5,.13,.75,.18,.02,.01,.05,.01,.07,.02,.3,.09,.59,.16,.91,.22,.31,.1,.64,.18,.97,.25,.31,.09,.64,.17,.97,.24,.32,.1,.64,.18,.97,.24,.32,.1,.65,.18,.98,.25,.31,.09,.64,.17,.97,.24,.32,.1,.64,.18,.97,.24,.32,.1,.64,.18,.98,.25,.31,.09,.64,.17,.97,.24,.32,.1,.64,.18,.97,.24,.32,.1,.64,.18,.97,.25,.32,.09,.65,.17,.98,.24,.31,.1,.64,.18,.97,.24,.32,.1,.64,.18,.97,.25,.32,.09,.65,.17,.98,.24,.31,.1,.64,.18,.97,.24,.32,.1,.64,.18,.97,.25,.32,.09,.64,.17,.98,.24,.31,.1,.64,.18,.97,.24,.32,.1,.64,.18,.97,.25,.32,.09,.64,.17,.97,.24,.32,.1,.65,.18,.98,.24,.31,.1,.64,.18,.97,.25,.32,.09,.64,.17,.97,.24,.32,.1,.65,.18,.98,.24,.31,.1,.64,.18,.97,.24,.32,.1,.64,.18,.97,.25,.32,.1,.64,.18,.98,.24,.31,.1,.64,.18,.97,.24,.32,.1,.64,.18,.97,.25,.32,.1,.64,.18,.97,.24,.32,.1,.65,.18,.98,.24,.31,.1,.64,.18,.97,.25,.32,.09,.64,.18,.97,.24,.32,.1,.65,.18,.98,.24,.31,.1,.64,.18,.97,.25,1.6,.49,3.37,.65,5.49-.18v-178.84c1.75,.68,3.5,1.34,5.26,1.97,1.81,.64,3.63,1.26,5.46,1.85,.83,.27,1.67,.53,2.5,.78,1.78,.55,3.57,1.06,5.36,1.54,.9,.24,1.8,.48,2.7,.7,.32,.08,.64,.16,.97,.24,.32,.08,.65,.16,.97,.24,.32,.09,.65,.17,.98,.25,.32,.08,.64,.16,.97,.24,.32,.08,.64,.16,.97,.24,.32,.09,.65,.17,.97,.25,.33,.08,.65,.16,.98,.24,.32,.08,.65,.16,.97,.24,.32,.09,.65,.17,.97,.25,.32,.08,.65,.16,.98,.24,.32,.08,.64,.16,.97,.24,.32,.09,.65,.17,.97,.25s.65,.16,.98,.24c.32,.08,.64,.16,.97,.24,.32,.09,.64,.17,.97,.25,.32,.08,.65,.16,.97,.24,.33,.08,.65,.16,.98,.24,.32,.09,.65,.17,.97,.25s.65,.16,.97,.24,.65,.16,.98,.24c.32,.09,.64,.17,.97,.25,.32,.08,.65,.16,.97,.24,.32,.08,.65,.16,.98,.24,.32,.09,.64,.17,.97,.25,.32,.08,.65,.16,.97,.24,.32,.08,.65,.16,.97,.24,.33,.09,.65,.16,.98,.25,.32,.08,.64,.16,.97,.24,.32,.08,.65,.16,.97,.24,.32,.09,.65,.16,.98,.25,.32,.08,.64,.16,.97,.24,.32,.08,.65,.16,.97,.24s.65,.16,.97,.25c.33,.08,.65,.16,.98,.24,.32,.08,.65,.16,.97,.24,.32,.08,.65,.16,.97,.24,16.88,4.33,34.41,5.9,52.83,3.73,16.4-1.94,32-6.25,46.23-14.77,33.4-20,52.12-50.73,62.16-87.22,6.83-24.82,8.22-50.27,6.81-76.07Zm-140.59-122.07c.74,.43,1.46,.88,2.18,1.34,.51,.33,1.02,.67,1.52,1.02,1.87,1.29,3.68,2.69,5.41,4.21,.4,.34,.8,.69,1.19,1.06,.49,.44,.97,.89,1.44,1.36,.13,.13,.27,.26,.4,.39,.39,.38,.78,.78,1.15,1.18,.12,.12,.24,.24,.35,.37,.35,.36,.68,.72,1,1.09,.19,.2,.37,.4,.54,.61,.3,.32,.58,.64,.85,.97,.21,.24,.41,.49,.61,.74,.24,.29,.48,.58,.71,.88,.28,.34,.54,.68,.8,1.02,.08,.1,.15,.19,.22,.29,.39,.51,.77,1.02,1.14,1.55,.42,.57,.83,1.16,1.22,1.76,1.21,1.78,2.36,3.65,3.45,5.6,8.58,15.31,13.13,31.91,15.91,49.07,3.46,21.4,4.61,42.99,3.58,64.59-1.12,23.27-3.81,46.39-13.27,68.1-14.99,34.36-39.33,45.94-69.95,47.12-1.22,.05-2.44,.06-3.65,.04-1.12-.02-2.23-.07-3.33-.13-.08,0-.15,0-.23-.01-10.36-4.05-20.23-9.15-29.89-14.72-5.31-3.06-7.12-6.84-7.07-12.85,.24-32.29,.11-64.58,.11-96.87s.31-62.59-.2-93.88c-.14-8.59,2.84-13.51,10.26-17.27,23.28-11.81,47.64-19.14,73.55-18.62h0Z"/>
      <path d="M741.29,1867.43c0,41.64,.03,83.29,0,124.94-.03,28.3-1.37,56.51-6.21,84.45-2.16,12.5-5.24,24.83-10.89,36.22-10.47,21.08-27.61,35.6-47.94,46.59-26.68,14.43-55.3,22.69-85.42,25.85-5.95,.62-11.92,1.05-17.83,1.86-1.73,.23-3.13,.13-4.28-.26-.34-.06-.66-.14-.97-.24-.34-.07-.67-.14-.97-.25-.34-.06-.67-.14-.97-.24-.35-.06-.67-.14-.98-.24-.34-.07-.67-.14-.97-.25-.34-.06-.67-.14-.97-.24-.34-.06-.67-.14-.98-.24-.34-.07-.67-.14-.97-.25-.34-.06-.67-.14-.97-.24-.34-.06-.67-.14-.98-.24-.34-.07-.66-.14-.97-.25-.34-.06-.67-.14-.97-.24-.34-.06-.67-.14-.97-.24-.34-.07-.67-.14-.98-.25-.34-.06-.67-.14-.97-.24-.34-.06-.67-.14-.97-.24-.34-.07-.67-.14-.98-.25-.34-.06-.67-.13-.97-.24-.34-.06-.67-.14-.97-.24-.34-.07-.67-.14-.97-.25-.35-.06-.67-.13-.98-.24-.34-.06-.67-.14-.97-.24-.34-.06-.67-.14-.97-.25-.34-.06-.67-.13-.98-.24-.34-.06-.67-.14-.97-.24-.34-.06-.67-.14-.97-.25-.34-.06-.67-.13-.98-.24-.34-.06-.66-.14-.97-.24-.34-.06-.67-.14-.97-.25-.34-.06-.67-.13-.97-.24-.35-.06-.67-.14-.98-.24-.34-.06-.67-.14-.97-.25-.34-.06-.67-.13-.97-.24-.34-.06-.67-.14-.98-.24-.34-.06-.67-.14-.97-.25-.31-.05-.61-.12-.89-.22-.03,0-.05-.01-.08-.02-.39-.07-.76-.17-1.11-.3-.11-.04-.21-.08-.31-.13-.09-.04-.18-.08-.26-.12-.1-.05-.2-.1-.29-.16-.05-.03-.11-.06-.16-.09-.13-.09-.26-.17-.38-.27-.14-.1-.27-.22-.4-.34-.1-.09-.2-.19-.29-.29-.11-.11-.22-.24-.31-.37-.17-.19-.31-.4-.45-.63-.12-.18-.23-.38-.33-.58-.08-.16-.16-.33-.24-.5-.05-.11-.1-.23-.15-.35-.07-.17-.13-.34-.19-.52-.07-.19-.14-.39-.2-.59-.16-.52-.3-1.07-.42-1.66-1.44-6.83-3.3-13.58-5.32-20.27-1.37-4.52-.55-6.61,4.6-7.21,15.19-1.8,30.23-4.6,45.18-7.84,18.41-3.98,35.74-10.43,50.82-22.15,13.7-10.65,22.43-24.24,25.9-41.33,.24-1.19,.47-2.38,.69-3.56,.15-.76,.28-1.52,.41-2.28,.29-1.62,.56-3.24,.81-4.86,.19-1.19,.36-2.37,.53-3.56t0-.01c.17-1.19,.33-2.39,.47-3.58,.16-1.19,.31-2.38,.43-3.58,.14-1.17,.26-2.34,.38-3.5,.24-2.34,.45-4.68,.62-7.02,.09-1.18,.17-2.35,.25-3.52,.02-.36,.05-.72,.07-1.09,.06-.9,.11-1.8,.15-2.71,.09-1.53,.16-3.06,.23-4.6,.04-.9,.07-1.8,.1-2.7,.08-2.35,.14-4.69,.18-7.04,.01-1.26,.03-2.51,.04-3.77-5.27,1.57-10.6,3.01-15.98,4.28-22.78,5.35-45.91,8.75-69.23,7.12-7.67-.53-15-1.66-21.98-3.38-.33-.07-.65-.16-.97-.24-.33-.08-.65-.16-.98-.24-.32-.08-.64-.17-.97-.25-.33-.07-.65-.16-.97-.24-.33-.08-.65-.16-.97-.24-.33-.08-.65-.17-.98-.25-.32-.07-.65-.16-.97-.24-.33-.08-.65-.16-.97-.24-.33-.08-.65-.16-.98-.24-.32-.08-.65-.17-.97-.25-.33-.08-.65-.16-.97-.24-.33-.08-.65-.16-.98-.24-.32-.08-.64-.17-.97-.25-.33-.08-.65-.16-.97-.24-.33-.08-.65-.16-.97-.24-.33-.08-.65-.17-.98-.25-.32-.08-.65-.16-.97-.24-.33-.08-.65-.16-.97-.24-.33-.08-.65-.17-.98-.25-.32-.07-.64-.16-.97-.24-.33-.08-.65-.16-.97-.24-.33-.08-.65-.17-.98-.25-.32-.07-.64-.16-.97-.24-.33-.08-.65-.16-.97-.24-.33-.08-.65-.17-.97-.25-.33-.07-.65-.16-.98-.24-.32-.08-.65-.16-.97-.24-.33-.08-.65-.17-.97-.25-.33-.07-.65-.16-.98-.24-.32-.08-.64-.16-.97-.24-.33-.08-.65-.17-.97-.25-.33-.07-.65-.16-.97-.24-.33-.08-.65-.16-.98-.24-.32-.08-.65-.17-.97-.25-.33-.07-.65-.16-.97-.24-.33-.08-.65-.16-.98-.24-.98-.23-1.95-.48-2.92-.74-.72-.18-1.44-.38-2.16-.59-.7-.2-1.39-.4-2.08-.62-.39-.11-.78-.24-1.17-.36-.54-.17-1.08-.34-1.61-.53-.53-.18-1.06-.36-1.59-.55-.76-.27-1.52-.55-2.28-.84-.49-.18-.98-.37-1.47-.57-.9-.35-1.8-.72-2.68-1.1-.43-.19-.85-.37-1.27-.57-.02,0-.05-.01-.07-.03-.49-.21-.98-.44-1.47-.67-.85-.39-1.69-.8-2.53-1.22-.64-.32-1.27-.65-1.9-.98-.14-.07-.27-.14-.4-.22-.66-.35-1.32-.71-1.97-1.08-.95-.53-1.88-1.08-2.8-1.65-.65-.39-1.29-.79-1.92-1.2-.04-.03-.08-.05-.12-.08-.67-.43-1.34-.87-2-1.33-.21-.13-.41-.27-.61-.41-.61-.42-1.21-.85-1.8-1.28-.73-.53-1.44-1.06-2.15-1.61-.01-.01-.03-.02-.04-.03-.68-.52-1.35-1.06-2.02-1.6-.03-.02-.05-.04-.08-.06-.59-.49-1.18-.98-1.76-1.47-.17-.15-.33-.29-.5-.43-.61-.53-1.21-1.07-1.8-1.61-.73-.66-1.45-1.34-2.16-2.03-.6-.58-1.19-1.16-1.77-1.76-.65-.65-1.28-1.31-1.91-1.99-.63-.67-1.25-1.36-1.86-2.05-.62-.7-1.22-1.4-1.82-2.12l-.02-.02c-.58-.7-1.16-1.4-1.73-2.12-.02-.03-.04-.05-.06-.08-.58-.73-1.15-1.46-1.71-2.21-.57-.76-1.13-1.53-1.69-2.31-.05-.07-.09-.13-.14-.19-.51-.72-1.01-1.45-1.51-2.19-1.05-1.55-2.07-3.13-3.06-4.76-.12-.2-.24-.39-.36-.59-.43-.72-.86-1.44-1.28-2.18-.5-.87-.99-1.75-1.48-2.64-5.8-10.66-8.15-22.38-8.13-34.64,.1-71.97,.04-143.94,.06-215.91,0-10.46,.04-10.47,10.02-13.89,11.97-4.09,23.92-8.25,35.94-12.19,.22-.07,.44-.14,.65-.21,.58-.18,1.09-.33,1.55-.44,.08-.03,.16-.05,.24-.06,1.23-.29,2.07-.31,2.65,.02h.02c.38,.02,.69,.1,.96,.25,.38,.01,.7,.09,.97,.24,.38,.01,.7,.09,.97,.24,.39,.02,.71,.1,.98,.25,.38,.01,.7,.09,.97,.24,.38,.01,.7,.09,.97,.24,.39,.02,.71,.1,.97,.25,.39,.01,.71,.09,.98,.24,.38,.01,.7,.09,.97,.24,.38,.02,.71,.1,.97,.25,.39,.01,.71,.09,.98,.24,.38,.01,.7,.09,.97,.24,.38,.02,.7,.1,.97,.25,.39,.01,.71,.09,.97,.24,.39,.01,.71,.09,.98,.24,.38,.02,.7,.1,.97,.25,.39,.01,.71,.09,.97,.24,.39,.01,.71,.09,.98,.24,.38,.02,.7,.1,.97,.25,.38,.01,.71,.09,.97,.24,.39,0,.71,.09,.98,.24,.38,.02,.7,.1,.97,.25,.38,.01,.7,.09,.97,.24,.39,.01,.71,.09,.97,.24,.39,.02,.71,.09,.98,.25,.38,.01,.7,.09,.97,.24,.39,.01,.71,.09,.97,.24,.39,.01,.71,.09,.98,.24,.38,.02,.7,.1,.97,.25,.38,.01,.71,.09,.97,.24,.39,0,.71,.09,.98,.24,.38,.02,.7,.1,.97,.25,.38,.01,.7,.09,.97,.24,.39,.01,.71,.09,.97,.24,.39,.02,.71,.1,.98,.25,.38,.01,.7,.09,.97,.24,1.86,.06,2.21,1.63,2.44,5.63,.16,2.66,.05,5.33,.05,8,0,68.3,.01,136.6,0,204.91-.01,9.02,1,17.93,3.16,26.65,5,20.23,18.41,34.39,35.24,42.72-.88-.05-1.76-.11-2.65-.17,.89,.08,1.77,.14,2.66,.18,.25,.02,.51,.03,.77,.04,.27,.01,.55,.03,.82,.04,.52,.03,1.04,.05,1.56,.06h.03c.52,.02,1.04,.03,1.56,.03,.55,.01,1.1,.01,1.65,.01,2.57,.01,5.12-.08,7.65-.27,1.69-.11,3.38-.27,5.05-.47,.84-.09,1.68-.2,2.51-.32,1.67-.23,3.32-.5,4.97-.8,.82-.16,1.65-.32,2.47-.48,3.07-.63,6.12-1.38,9.14-2.25,1.01-.29,2.01-.59,3.01-.9,8.8-2.75,17.37-6.42,25.76-10.77,1.53-.79,3.05-1.6,4.56-2.44,.76-.42,1.52-.84,2.27-1.27,1.51-.85,3.01-1.73,4.51-2.62,1.5-.9,3-1.81,4.49-2.74,3.5-2.18,5.23-4.78,4.85-8.94-.24-2.64-.03-5.32-.03-7.99v-233.9c0-2.66,.18-5.34-.02-7.99-.4-5.31,2.2-6.92,7.16-6.85,13.32,.19,26.65,.22,39.98,0,.74-.01,1.41,.02,2.02,.1,.22,.03,.44,.06,.64,.12,.09,.01,.18,.03,.26,.06,.14,.02,.28,.06,.41,.11,.04,.01,.08,.02,.11,.03,.02,0,.03,.01,.05,.01,.33,.06,.64,.13,.92,.23,.35,.06,.68,.15,.98,.24,.35,.07,.67,.15,.97,.25,.35,.06,.67,.14,.97,.24,.35,.06,.68,.15,.98,.24,.35,.07,.67,.15,.97,.25,.35,.06,.67,.14,.97,.24,.35,.06,.67,.14,.98,.24,.34,.07,.67,.15,.97,.25,.35,.06,.67,.14,.97,.24,.35,.06,.67,.14,.97,.24,.35,.07,.68,.15,.98,.25,.35,.06,.67,.14,.97,.24,.35,.06,.67,.14,.97,.24,.35,.07,.68,.15,.98,.25,.34,.06,.67,.14,.97,.24,.35,.06,.67,.14,.97,.24,.35,.07,.67,.15,.98,.25,.34,.06,.67,.14,.97,.24,.35,.06,.67,.14,.97,.24,.35,.07,.67,.15,.97,.25,.35,.06,.68,.14,.98,.24,.35,.06,.67,.14,.97,.24,.35,.06,.67,.15,.97,.25,.35,.06,.67,.14,.98,.24,.34,.06,.67,.14,.97,.24,.35,.06,.67,.15,.97,.24,.35,.07,.67,.15,.98,.25,.34,.06,.67,.14,.97,.24,.35,.06,.67,.15,.97,.24,.35,.07,.67,.15,.97,.25,.35,.06,.68,.14,.98,.24,.35,.06,.67,.15,.97,.24,.35,.07,.67,.15,.97,.25,.35,.06,.67,.14,.98,.24,.34,.06,.67,.15,.97,.24,3.33,.61,4.5,2.81,4.46,6.95-.16,17.66-.05,35.32-.05,52.97v107.96Z"/>
      <path d="M564.46,1981.24c-.26-.01-.51-.03-.77-.04,0,0-.01,0-.01-.01,.26,.01,.52,.03,.78,.05Z"/>
      <path d="M577.73,1981.11c1.69-.12,3.38-.28,5.05-.47-1.67,.2-3.36,.36-5.05,.47Z"/>
      <path d="M592.73,1979.04c3.08-.64,6.13-1.39,9.14-2.25-3.02,.87-6.07,1.62-9.14,2.25Z"/>
      <path d="M653.72,2040.67c-.17,2.34-.38,4.68-.62,7.02,.23-2.34,.44-4.68,.62-7.02Z"/>
      <path d="M1274.7,2012.03c-.18,8.65-.19,8.74-9.1,8.8-12.33,.09-24.66,.12-36.99-.02-2.71-.03-4.45-.09-5.59-.49-.36-.07-.69-.14-.97-.25-.37-.06-.69-.14-.98-.24-.36-.06-.68-.14-.97-.24-.36-.06-.69-.14-.97-.25-.37-.06-.69-.14-.97-.24-.37-.06-.69-.14-.98-.24-.36-.06-.69-.14-.97-.25-.37-.06-.69-.14-.97-.24-.37-.06-.69-.14-.98-.24-.36-.06-.69-.14-.97-.25-.36-.06-.69-.14-.97-.24-.37-.06-.69-.14-.98-.24-.36-.06-.68-.14-.97-.24-.36-.07-.69-.15-.97-.25-.37-.06-.69-.14-.97-.24-.37-.06-.69-.14-.98-.24-.36-.07-.69-.15-.97-.25-.37-.06-.69-.14-.97-.24-.37-.06-.69-.14-.98-.24-.36-.07-.69-.15-.97-.25-.36-.06-.69-.14-.97-.24-.37-.06-.69-.14-.98-.24-.36-.07-.68-.15-.97-.25-.36-.06-.69-.14-.97-.24-.37-.06-.69-.14-.97-.24-.37-.07-.69-.15-.98-.25-.36-.06-.69-.14-.97-.24-.36-.06-.69-.14-.97-.24-.37-.07-.69-.15-.98-.25-.36-.06-.69-.14-.97-.24-.36-.06-.69-.14-.97-.24-.37-.07-.69-.15-.97-.25-.37-.06-.69-.14-.98-.24-.36-.06-.69-.14-.97-.24-.37-.07-.69-.15-.97-.25-.36-.06-.68-.14-.96-.23t-.02-.01c-.18-.03-.34-.07-.5-.1-.01-.01-.02-.01-.03-.01-.16-.04-.31-.09-.46-.14-.28-.11-.53-.23-.75-.39-.11-.08-.2-.16-.3-.25-.1-.1-.19-.21-.28-.34h0c-.08-.13-.16-.27-.23-.42-.05-.1-.09-.2-.13-.31-.24-.67-.36-1.55-.44-2.71-.02-.17-.03-.35-.04-.54-.03-.55-.05-1.17-.08-1.85,0-.23-.01-.46-.02-.7-.08-2.33-.02-4.66-.02-7,0-65.32,.2-130.65-.11-195.97-.1-21.19-6.14-40.84-20.14-57.24-.37-.43-.75-.86-1.13-1.28-.35-.39-.71-.78-1.07-1.15l-.17-.17c-.36-.37-.72-.74-1.09-1.09-.04-.05-.08-.09-.13-.13-.35-.35-.71-.69-1.07-1.01-.41-.38-.81-.74-1.23-1.09-.82-.72-1.67-1.4-2.53-2.05h-.01c-.43-.33-.86-.64-1.29-.94,0-.01-.01-.01-.01-.01-13.34,.64-26.03,4.3-38.34,9.72-15.59,6.86-30.16,15.57-44.32,25.05-5.09,3.41-5.4,7.76-5.39,12.91,.05,50.33,.03,100.66,.03,150.98,0,26,.04,52-.02,78-.02,9.37-.12,9.45-9.39,9.5-12.33,.08-24.66-.12-36.99,.08-1.43,.02-2.64-.12-3.64-.43-.34-.07-.67-.15-.97-.25-.35-.06-.67-.14-.97-.24-.35-.06-.67-.15-.98-.24-.34-.07-.66-.15-.97-.25-.35-.06-.67-.14-.97-.24-.35-.06-.67-.15-.98-.24-.34-.07-.66-.15-.97-.25-.35-.06-.67-.14-.97-.24-.35-.06-.67-.15-.97-.24-.35-.07-.67-.15-.98-.25-.34-.06-.67-.14-.97-.24-.35-.06-.67-.15-.97-.24-.35-.07-.67-.15-.98-.25-.34-.06-.66-.14-.97-.24-.35-.06-.67-.15-.97-.24-.35-.07-.67-.15-.98-.25-.34-.06-.66-.14-.97-.24-.34-.06-.67-.15-.97-.24-.35-.07-.67-.15-.97-.25-.35-.06-.67-.14-.98-.24-.34-.06-.67-.15-.97-.24-.35-.07-.67-.15-.97-.25-.35-.06-.67-.14-.98-.24-.34-.06-.66-.15-.97-.24-.35-.07-.67-.15-.97-.25-.35-.06-.67-.14-.98-.24-.34-.06-.66-.15-.97-.24-.34-.07-.67-.15-.97-.25-.35-.06-.67-.14-.97-.24-.35-.06-.67-.14-.98-.24-.34-.06-.66-.15-.97-.25-.35-.06-.67-.14-.97-.24-.35-.06-.67-.14-.98-.24-.34-.06-.66-.15-.97-.24-.35-.07-.67-.15-.97-.25-.33-.06-.64-.13-.92-.23-.02,0-.03,0-.05-.01-.18-.03-.36-.07-.54-.12-.12-.03-.25-.06-.37-.1-.32-.1-.62-.21-.89-.35-.12-.05-.23-.11-.34-.18-.07-.04-.13-.08-.19-.12-.33-.21-.62-.47-.87-.76-.07-.08-.14-.16-.2-.24-.04-.06-.08-.12-.12-.18-.07-.09-.13-.2-.18-.3-.11-.19-.21-.4-.29-.62-.04-.12-.09-.24-.12-.37-.02-.04-.03-.09-.04-.13-.03-.1-.06-.2-.07-.31-.05-.17-.08-.35-.1-.53-.03-.18-.05-.36-.06-.55-.06-.58-.05-1.23,0-1.93,.18-2.32,.02-4.66,.02-6.99v-466.95c0-2.67,.11-5.34,.01-8-.13-3.47,1.29-5.62,4.67-6.69,14.29-4.49,28.55-9.09,42.83-13.61,1.08-.34,2.04-.49,2.85-.42,.25,.02,.49,.06,.71,.12,.12,.04,.24,.08,.36,.13,.35,.04,.67,.12,.97,.24,.35,.04,.68,.12,.97,.25,.36,.03,.68,.11,.97,.24,.36,.04,.68,.12,.98,.24,.35,.04,.68,.12,.97,.25,.35,.03,.68,.11,.97,.24,.36,.04,.68,.12,.98,.24,.35,.04,.67,.12,.97,.24,.35,.04,.68,.12,.97,.25,.36,.04,.68,.12,.98,.24,.35,.04,.67,.12,.97,.24,.35,.04,.68,.12,.97,.25,.36,.03,.68,.12,.97,.24,.36,.04,.68,.12,.98,.24,.35,.04,.68,.12,.97,.25,.35,.03,.68,.12,.97,.24,.36,.04,.68,.12,.98,.24,.35,.04,.67,.12,.97,.25,.35,.03,.68,.12,.97,.24,.36,.04,.68,.12,.98,.24,.35,.04,.67,.12,.97,.25,.35,.03,.68,.12,.97,.24,.35,.04,.68,.12,.97,.24,.36,.04,.68,.12,.98,.25,.35,.03,.68,.11,.97,.24,.35,.04,.68,.12,.97,.24,.36,.04,.68,.12,.98,.25,.35,.03,.67,.11,.97,.24,.35,.04,.68,.12,.97,.24,.36,.04,.68,.12,.98,.25,.35,.03,.67,.11,.97,.24,.35,.04,.68,.12,.97,.24,.35,.04,.68,.12,.97,.25,.36,.03,.68,.11,.98,.24,.35,.04,.67,.12,.97,.24,.35,.04,.68,.12,.97,.25,1.85,.19,2.93,1.55,2.92,4.47-.02,3,.05,6,.05,9v180.34c12.21-5.69,24.77-9.84,37.65-12.56,.8-.17,1.61-.34,2.42-.5,2.42-.47,4.85-.9,7.3-1.28,2.44-.38,4.9-.71,7.36-.99,.64-.07,1.27-.14,1.91-.21,1.05-.11,2.1-.21,3.16-.3,.78-.07,1.57-.14,2.36-.19,.83-.07,1.66-.12,2.49-.17,.83-.06,1.66-.1,2.49-.14,.84-.05,1.67-.08,2.5-.11,2.72-.1,5.44-.15,8.17-.14,.73,0,1.46,.01,2.18,.03,.22,.01,.43,.01,.64,.02,.62,.01,1.24,.04,1.85,.07,.05,.01,.11,.01,.16,.01,.34,.02,.67,.04,1.01,.06,.3,.01,.61,.03,.91,.05,1.46,.11,2.91,.24,4.35,.4,.51,.05,1.02,.12,1.53,.18,.51,.06,1.02,.13,1.52,.21,.47,.06,.95,.14,1.42,.21,.09,.01,.18,.03,.27,.04,.94,.16,1.87,.32,2.8,.5,.49,.09,.98,.19,1.46,.29,.49,.11,.98,.21,1.46,.32,.47,.11,.94,.22,1.4,.33,.03,.01,.07,.02,.1,.02,.46,.12,.92,.23,1.37,.35,.04,.01,.07,.02,.11,.03,.28,.07,.58,.14,.86,.21,.32,.08,.65,.16,.97,.25,.33,.08,.65,.16,.98,.24,.32,.08,.65,.16,.97,.24,.32,.08,.65,.16,.97,.25,.33,.08,.65,.16,.97,.24,.33,.08,.65,.16,.98,.24,.32,.08,.65,.16,.97,.25,.33,.08,.65,.16,.98,.24,.32,.08,.64,.16,.97,.24,.32,.08,.65,.16,.97,.25,.32,.08,.65,.16,.97,.24,.33,.08,.65,.16,.97,.24,.33,.08,.66,.16,.98,.25,.32,.08,.65,.16,.97,.24,.33,.08,.65,.16,.97,.24,.33,.08,.65,.16,.98,.25,.32,.08,.65,.15,.97,.24,.32,.08,.65,.16,.98,.24,.32,.08,.64,.16,.97,.25,.32,.08,.65,.15,.97,.24,.32,.08,.65,.16,.97,.24,.33,.08,.65,.16,.97,.24,.33,.09,.65,.16,.98,.25,.32,.08,.65,.16,.97,.24,.33,.08,.65,.16,.98,.25,.32,.08,.64,.15,.97,.24,.32,.08,.65,.16,.97,.24,.32,.08,.65,.16,.97,.24,.33,.09,.65,.16,.98,.25,.32,.08,.65,.16,.97,.24s.65,.16,.97,.24c.33,.09,.65,.16,.97,.25,.33,.08,.65,.16,.98,.24,.32,.08,.65,.16,.97,.24,.33,.08,.65,.16,.98,.25,41.09,10.22,65.8,46.46,69.42,82.82,1.19,11.98,1.29,23.91,1.3,35.88,.03,61.99,.01,123.98,.01,185.98,0,2.33,.04,4.66-.01,7Z"/>
      <path d="M1158.57,1737.67c-.83-.71-1.67-1.39-2.53-2.05,.86,.65,1.71,1.33,2.53,2.05Z"/>
      <path d="M1461.37,1980.54c1.6-.52,3.18-1.08,4.74-1.69-1.56,.6-3.14,1.17-4.74,1.69Zm10.75-250.85c1.05,.58,2.09,1.18,3.1,1.81-1.01-.63-2.05-1.24-3.1-1.81Z"/>
      <path d="M1612.93,1811.6c-8.88-39.52-28.44-72.41-61.99-95.76-13.9-9.68-28.63-16.19-44.03-19.98-.33-.08-.65-.16-.98-.24-.32-.08-.65-.16-.97-.24-.33-.09-.65-.17-.97-.25-.33-.08-.65-.16-.97-.24-.33-.08-.65-.16-.98-.24-.32-.09-.65-.17-.97-.25-.33-.08-.65-.16-.97-.24-.33-.08-.65-.16-.98-.24-.32-.09-.65-.17-.97-.25-.33-.08-.65-.16-.97-.24-.33-.08-.65-.16-.98-.24-.32-.09-.65-.17-.97-.25-.32-.08-.65-.16-.97-.24-.33-.08-.65-.16-.97-.24-.33-.09-.65-.17-.98-.25-.32-.08-.65-.16-.97-.24-.33-.08-.65-.16-.97-.24-.33-.08-.65-.17-.98-.25-.32-.08-.65-.16-.97-.24-.33-.08-.65-.16-.97-.24-.33-.08-.65-.17-.98-.25-.32-.08-.65-.16-.97-.24-.32-.08-.65-.16-.97-.24-.33-.08-.65-.17-.97-.25-.33-.08-.65-.16-.98-.24-.32-.08-.65-.16-.97-.24-.33-.08-.65-.17-.97-.24-.33-.09-.65-.17-.98-.25-.32-.08-.65-.16-.97-.24-.33-.08-.65-.17-.97-.25-.33-.08-.65-.16-.97-.24-.33-.08-.65-.16-.98-.24-.32-.08-.65-.17-.97-.24-.33-.09-.65-.17-.97-.25-.33-.08-.65-.16-.98-.24-.23-.06-.46-.11-.69-.17-.09-.02-.19-.05-.28-.07t-.02-.01c-2.19-.55-4.4-1.05-6.62-1.5-.74-.15-1.49-.29-2.23-.43-1.49-.27-2.99-.53-4.49-.75-2.07-.31-4.14-.58-6.22-.8-.96-.1-1.91-.2-2.87-.28-.58-.05-1.15-.1-1.73-.14-.31-.02-.61-.05-.92-.07-.48-.04-.96-.07-1.44-.1-.32-.01-.63-.03-.95-.05-.56-.03-1.13-.06-1.69-.08-.96-.04-1.92-.08-2.88-.1-.65-.02-1.3-.03-1.95-.04-6.8-.1-13.71,.23-20.71,.94-39.43,4-70.42,22.26-94.7,53.09-23.39,29.69-33.53,64.03-34.99,101.07-1.09,27.75,2.31,55.13,11.73,81.5,10.78,30.19,27.65,56.15,53.8,75.19,.83,.61,1.67,1.2,2.52,1.79,.67,.46,1.33,.91,2.01,1.35,.17,.12,.35,.24,.53,.35,.58,.39,1.17,.76,1.76,1.13,.69,.44,1.39,.87,2.09,1.29,2.38,1.43,4.8,2.77,7.25,4.01,.64,.33,1.29,.65,1.93,.96,.23,.11,.46,.23,.69,.33,.66,.32,1.32,.63,1.98,.93,1.66,.76,3.34,1.48,5.03,2.15,.47,.19,.94,.38,1.41,.55,.49,.2,.99,.39,1.49,.58,.71,.26,1.43,.52,2.16,.77,.58,.21,1.16,.41,1.74,.6,.35,.12,.7,.24,1.06,.35,.61,.2,1.22,.39,1.83,.58,.14,.05,.28,.09,.43,.13,.75,.23,1.51,.45,2.27,.67h.02c.83,.24,1.67,.47,2.51,.69,.72,.19,1.44,.37,2.16,.55,.13,.03,.25,.06,.38,.09,.2,.05,.4,.1,.6,.15,.32,.08,.64,.16,.97,.24,.32,.08,.65,.17,.97,.25,.33,.08,.65,.16,.98,.24,.32,.08,.64,.16,.97,.24,.32,.08,.65,.17,.97,.24,.33,.09,.65,.17,.98,.25,.32,.08,.64,.16,.97,.24,.32,.08,.64,.16,.97,.24,.32,.09,.65,.17,.97,.25,.33,.08,.65,.16,.98,.24,.32,.08,.64,.16,.97,.24,.32,.09,.65,.17,.97,.25,.33,.08,.65,.16,.98,.24,.32,.08,.64,.16,.97,.24,.32,.09,.65,.17,.97,.25,.33,.08,.65,.16,.97,.24,.33,.08,.65,.16,.98,.24,.32,.09,.64,.17,.97,.25,.32,.08,.65,.16,.97,.24,.33,.08,.65,.16,.98,.24,.32,.08,.64,.17,.97,.25,.32,.08,.65,.16,.97,.24,.33,.08,.65,.16,.98,.24,.32,.08,.64,.17,.97,.25,.32,.08,.64,.16,.97,.24,.32,.08,.65,.16,.97,.24,.33,.08,.65,.17,.98,.25,.32,.08,.64,.16,.97,.24,.32,.08,.65,.16,.97,.24,.33,.08,.65,.17,.98,.25,.32,.08,.64,.16,.97,.24,.32,.08,.65,.16,.97,.24,.33,.08,.65,.17,.98,.25,.32,.08,.64,.16,.97,.24,.32,.08,.64,.16,.97,.24,13.44,3.39,27.5,4.69,42.01,4.42,54.18-.99,93.78-25.92,120.33-72.53,17.44-30.61,23.77-63.96,24.21-105.22,.3-8.59-1.22-23.47-4.52-38.13Zm-229.4,79.36c-3.8-30.22-3.54-60.4,3.52-90.24,3.79-16.04,10.12-30.86,20.69-43.85,15.66-19.25,40.18-28.17,62.79-28.04,.53,.27,1.06,.56,1.59,.86,1.05,.57,2.09,1.18,3.1,1.81,.5,.3,.99,.61,1.47,.93,.03,.02,.06,.04,.08,.05,.39,.25,.77,.5,1.14,.76,1.63,1.1,3.2,2.25,4.72,3.46,.4,.32,.8,.64,1.19,.97,.45,.37,.9,.74,1.34,1.13,2.71,2.35,5.25,4.87,7.63,7.57,.72,.81,1.43,1.64,2.11,2.49,.35,.42,.7,.85,1.03,1.28,.06,.07,.12,.14,.17,.22,.27,.33,.52,.66,.77,1,.43,.57,.86,1.14,1.27,1.71,.7,.96,1.38,1.94,2.04,2.94,.34,.5,.67,1,.98,1.51,.32,.48,.62,.95,.91,1.44,.05,.07,.09,.13,.12,.19,.3,.48,.59,.96,.87,1.45,.63,1.04,1.23,2.1,1.81,3.18,.3,.53,.59,1.07,.87,1.62,.29,.54,.58,1.1,.85,1.65,.29,.55,.56,1.11,.83,1.67,.28,.56,.54,1.12,.81,1.69,7.37,15.77,11.6,32.46,13.25,49.92,.88,9.31,1.16,18.58,1.25,27.89,.22,23.06-2.02,45.87-7.95,68.17-4.31,16.21-10.93,31.36-22.37,44.14-5.65,6.32-11.98,11.68-19.45,15.33-1.48,.72-2.99,1.41-4.53,2.05-.77,.32-1.54,.64-2.32,.94-1.56,.61-3.14,1.17-4.74,1.69-8.92,2.91-18.45,4.49-28,4.44h-.01c-11.15-6.11-21.14-15.52-28.81-28.9-11.63-20.31-18.13-42.16-21.02-65.12Z"/>
      <path d="M1924.7,2014.75c.19,4.09-1.48,6.14-5.82,6.11-13.99-.1-27.99-.09-41.98,0-1.21,.01-2.25-.12-3.12-.4-.34-.06-.66-.15-.97-.24-.34-.07-.67-.15-.97-.25-.35-.06-.67-.14-.97-.24-.35-.06-.67-.14-.98-.24-.34-.07-.67-.15-.97-.25-.35-.06-.67-.14-.97-.24-.35-.06-.67-.14-.98-.24-.34-.07-.67-.15-.97-.25-.35-.06-.67-.14-.97-.24-.35-.06-.67-.14-.98-.24-.34-.07-.66-.15-.97-.25-.34-.06-.67-.14-.97-.24-.35-.06-.67-.14-.97-.24-.35-.06-.67-.15-.98-.25-.34-.06-.67-.14-.97-.24-.35-.06-.67-.14-.97-.24-.35-.06-.67-.15-.98-.25-.34-.06-.66-.14-.97-.24-.35-.06-.67-.14-.97-.24-.35-.06-.67-.15-.97-.25-.35-.06-.67-.14-.98-.24-.34-.06-.67-.14-.97-.24-.35-.06-.67-.15-.97-.25-.35-.06-.67-.14-.98-.24-.34-.06-.67-.14-.97-.24-.35-.06-.67-.15-.97-.25-.35-.06-.67-.14-.98-.24-.34-.06-.66-.14-.97-.24-.34-.06-.67-.15-.97-.25-.35-.06-.67-.14-.97-.24-.35-.06-.67-.14-.98-.24-.34-.06-.67-.15-.97-.25-.35-.06-.67-.14-.97-.24-.35-.06-.67-.14-.98-.24-.34-.06-.67-.15-.97-.24-.34-.07-.64-.14-.93-.24-.01,0-.03-.01-.04-.01-.22-.04-.44-.08-.64-.14-.13-.03-.26-.07-.39-.12-.14-.04-.28-.1-.41-.15-.1-.04-.19-.09-.28-.14-.01,0-.02,0-.03,0-.12-.06-.23-.13-.34-.2-.25-.16-.48-.34-.68-.55-.06-.05-.12-.11-.16-.18-.04-.04-.08-.08-.12-.13-.05-.07-.11-.15-.16-.23-.03-.04-.05-.08-.08-.13-.06-.09-.11-.18-.16-.28-.08-.15-.15-.32-.21-.5-.06-.15-.11-.3-.15-.47-.04-.15-.08-.31-.1-.47-.02-.09-.04-.19-.05-.28-.07-.49-.09-1.03-.07-1.63,.1-2.66-.02-5.33-.02-8,0-69.31,.3-138.62-.14-207.94-.01-.88-.02-1.75-.05-2.62-.03-.87-.07-1.73-.12-2.59-.04-.86-.11-1.71-.18-2.56-.07-.84-.15-1.68-.25-2.51-.09-.82-.2-1.63-.32-2.44,0-.03,0-.05-.01-.08-.11-.81-.24-1.61-.38-2.4-.13-.81-.28-1.61-.45-2.4-.32-1.56-.68-3.1-1.1-4.62-.01-.02-.01-.05-.02-.07-.2-.77-.43-1.53-.66-2.28-.01-.02-.01-.04-.01-.05-.45-1.45-.94-2.87-1.48-4.26-.05-.14-.11-.28-.16-.42-.24-.63-.5-1.26-.76-1.87-.3-.7-.6-1.39-.93-2.07-.01-.03-.03-.06-.04-.09-.32-.68-.65-1.36-1-2.03-.34-.69-.71-1.36-1.09-2.03-.37-.67-.75-1.33-1.16-1.98-.39-.64-.79-1.26-1.2-1.88-.4-.62-.83-1.24-1.27-1.84-2.94-4.13-6.44-7.93-10.49-11.34-.04-.03-.08-.07-.12-.1-.35-.31-.71-.61-1.08-.89-.41-.35-.83-.68-1.25-1-.45-.34-.9-.68-1.36-1.02-.46-.34-.92-.67-1.39-.99-.47-.33-.95-.66-1.43-.97-.63-.42-1.29-.81-1.94-1.21-1.57-.97-3.2-1.9-4.89-2.78-6.99-.19-14.06,.32-21.16,1.32-17.06,2.39-32.63,8.73-47.67,16.99-7.59,4.17-10.68,9.13-10.64,18.09,.35,81.64,.22,163.29,.18,244.93-.01,13.46,1.85,12.74-13.03,12.76-10.33,.01-20.66,.06-30.99-.01-3.39-.03-5.53-.06-6.91-.54-.36-.07-.69-.15-.98-.25-.35-.06-.68-.14-.97-.24-.36-.06-.69-.14-.97-.24-.36-.07-.69-.15-.98-.25-.35-.06-.68-.14-.97-.24-.36-.06-.68-.14-.97-.24-.36-.07-.69-.15-.97-.25-.36-.06-.69-.14-.98-.24-.35-.06-.68-.14-.97-.24-.36-.07-.69-.14-.97-.25-.36-.06-.69-.14-.98-.24-.35-.06-.68-.14-.97-.24-.36-.07-.68-.14-.97-.24-.36-.07-.69-.15-.97-.25-.36-.06-.69-.14-.98-.24-.35-.07-.68-.14-.97-.24-.36-.07-.69-.15-.97-.25-.36-.06-.69-.14-.98-.24-.35-.07-.68-.14-.97-.24-.36-.07-.69-.15-.97-.25-.36-.06-.69-.14-.98-.24-.35-.07-.68-.14-.97-.24-.36-.07-.68-.15-.97-.25-.36-.06-.69-.14-.97-.24-.36-.07-.69-.14-.98-.24-.35-.07-.68-.15-.97-.25-.36-.06-.69-.14-.97-.24-.36-.07-.69-.14-.98-.24-.35-.07-.68-.15-.97-.25-.36-.06-.69-.14-.97-.24-.36-.06-.69-.14-.98-.24-.35-.07-.68-.15-.97-.25-.36-.06-.68-.14-.97-.24-.36-.06-.69-.14-.97-.24-.36-.07-.69-.15-.98-.25-.31-.05-.6-.12-.86-.21-.01,0-.02,0-.03-.01-.03,0-.05-.01-.08-.02-.16-.03-.31-.06-.45-.09-.85-.21-1.46-.54-1.9-1.05-.07-.1-.14-.19-.2-.29-.04-.07-.09-.15-.13-.22-.08-.16-.15-.33-.22-.51-.16-.45-.27-.99-.35-1.63-.01-.15-.03-.31-.04-.47-.01-.13-.02-.26-.03-.4-.04-.55-.07-1.16-.08-1.84,0-.31-.01-.64-.01-.98-.01-.55-.01-1.13-.01-1.76-.04-42.99-.02-85.98-.02-128.97s.22-84.64-.2-126.96c-.08-7.72,2.74-11.93,8.77-16.19,34.06-24.06,71.29-39.84,112.79-45.43,3.71-.5,7.42-.92,11.11-1.26,7.73-.7,15.41-1.01,23.03-.8,.78,.02,1.55,.05,2.33,.08,1.55,.06,3.09,.15,4.64,.25,1.54,.11,3.08,.24,4.62,.39,1.54,.16,3.07,.33,4.6,.53,.77,.1,1.54,.21,2.3,.32,.76,.11,1.53,.23,2.29,.36,.84,.14,1.68,.28,2.53,.44,.68,.12,1.36,.25,2.04,.39,2.28,.45,4.55,.97,6.81,1.55,.33,.08,.65,.16,.97,.24,.12,.03,.25,.06,.37,.1,.2,.04,.4,.09,.61,.15,.32,.08,.65,.16,.97,.24s.65,.16,.97,.24c.33,.08,.65,.16,.98,.25,.32,.08,.65,.16,.97,.24,.32,.08,.65,.16,.97,.24,.33,.08,.65,.16,.98,.25,.32,.08,.65,.16,.97,.24,.32,.08,.65,.16,.97,.24,.33,.08,.65,.16,.97,.25,.33,.08,.65,.16,.98,.24,.32,.08,.65,.16,.97,.24,.32,.08,.65,.16,.97,.25,.33,.08,.65,.16,.98,.24,.32,.08,.65,.16,.97,.24s.65,.16,.97,.25c.33,.08,.65,.16,.97,.24,.33,.08,.66,.16,.98,.24,.32,.08,.65,.16,.97,.25,.33,.08,.65,.16,.97,.24,.33,.08,.65,.16,.98,.24,.32,.08,.65,.16,.97,.24,.32,.09,.65,.17,.97,.25,.33,.08,.65,.16,.98,.24,.32,.08,.65,.16,.97,.25,.33,.08,.65,.16,.97,.24,.33,.08,.65,.16,.97,.24,.33,.08,.65,.16,.98,.24,.32,.08,.65,.17,.97,.25,.33,.08,.65,.16,.97,.24,.33,.08,.65,.16,.98,.24,.32,.08,.65,.16,.97,.25,.32,.08,.65,.16,.97,.24,.33,.08,.65,.16,.98,.24,.32,.08,.65,.16,.97,.25,7.33,1.81,14.58,4.27,21.74,7.51,23.8,10.77,41.49,27.65,48.24,53.83,1.9,7.37,2.78,15,2.78,22.71-.05,76.65-.03,153.29-.03,229.94,0,1.66-.09,3.33-.01,5Z"/>
      <path d="M1819.22,1743.56c-.36-.43-.72-.86-1.09-1.28,.37,.42,.74,.85,1.09,1.28Z"/>
      <path d="M1819.62,1744.05c-.13-.16-.27-.33-.4-.49,.14,.16,.27,.33,.4,.49Z"/>
      <path d="M1820.61,1745.28c-.32-.42-.65-.83-.98-1.23,.33,.41,.66,.82,.98,1.23Z"/>
      <path d="M1818.13,1742.28c-.11-.13-.22-.25-.33-.38,.11,.13,.22,.25,.33,.38Z"/>
      <path d="M1808.99,1733.73c.38,.3,.77,.6,1.14,.92-1.79-1.45-3.69-2.82-5.69-4.13,.12,.07,.25,.15,.37,.23,.48,.32,.96,.64,1.43,.97,.47,.33,.93,.66,1.39,.99,.46,.34,.91,.68,1.36,1.02Z"/>
      <path d="M1816.56,1740.56c-.07-.07-.14-.15-.21-.22,.07,.07,.14,.15,.21,.22Z"/>
      <path d="M1817.79,1741.9c-.4-.45-.81-.9-1.23-1.34,.42,.44,.83,.89,1.23,1.34Z"/>
      <path d="M1823.2,1748.9c-.23-.35-.48-.7-.72-1.05,.24,.35,.49,.69,.72,1.05Z"/>
      <path d="M1821.06,1745.89c-.15-.2-.3-.41-.46-.61,.16,.2,.31,.4,.46,.61Z"/>
      <path d="M1822.48,1747.85c-.18-.26-.36-.53-.55-.79,.19,.26,.36,.52,.55,.79Z"/>
      <path d="M1821.93,1747.06c-.28-.4-.58-.79-.87-1.18,.29,.39,.59,.78,.87,1.18Z"/>
      <path d="M1832.81,1772.55c-.32-1.57-.69-3.11-1.1-4.62,.42,1.52,.78,3.06,1.1,4.62Z"/>
      <path d="M950.76,2004.43c-.31,5.32-.13,10.66-.12,16,0,3.27-1.59,4.8-4.84,4.95-16.43,.74-32.69,.65-48.39-3.28-.32-.08-.65-.17-.97-.25s-.65-.16-.97-.24c-.33-.08-.65-.16-.98-.24-.32-.08-.65-.17-.97-.25-.33-.08-.65-.16-.97-.24-.33-.08-.65-.16-.98-.24-.32-.08-.65-.17-.97-.25-.32-.08-.65-.16-.97-.24-.33-.08-.65-.16-.97-.24-.33-.08-.65-.17-.98-.25-.32-.08-.65-.16-.97-.24-.32-.08-.65-.16-.97-.24-.33-.08-.65-.17-.98-.25-.32-.07-.65-.16-.97-.24-.33-.08-.65-.16-.97-.24-.33-.08-.65-.16-.97-.25-.33-.07-.66-.16-.98-.24-.32-.08-.65-.16-.97-.24-.33-.08-.65-.16-.97-.25-.33-.07-.65-.16-.98-.24-.32-.08-.65-.16-.97-.24-.33-.08-.65-.16-.97-.25-.33-.07-.65-.16-.97-.24-.33-.08-.66-.16-.98-.24-.33-.08-.65-.16-.97-.25-.33-.07-.65-.16-.97-.24-.33-.08-.66-.16-.98-.24-.32-.08-.65-.16-.97-.24-.33-.08-.65-.17-.97-.25-.33-.08-.65-.16-.98-.24-.32-.08-.65-.16-.97-.25-.33-.07-.65-.16-.97-.24-.33-.08-.65-.16-.98-.24-.32-.08-.65-.16-.97-.24s-.65-.17-.97-.25c-.12-.03-.24-.06-.35-.09-.21-.05-.42-.1-.62-.15-.35-.08-.71-.17-1.06-.26l-1.17-.3c-.31-.08-.62-.17-.94-.25-.41-.11-.81-.23-1.22-.35-.56-.16-1.11-.32-1.66-.49-.44-.14-.89-.28-1.33-.43-1.21-.38-2.41-.8-3.62-1.25-.43-.16-.86-.32-1.29-.49-2.85-1.1-5.68-2.36-8.48-3.8-24.23-12.43-37.38-32.26-40.3-59.09-.06-.58-.12-1.16-.17-1.74-.15-1.73-.25-3.48-.31-5.23-.02-.58-.04-1.16-.05-1.75-.03-1.16-.04-2.33-.05-3.49-.01-.59-.01-1.17-.01-1.75-.03-65.33-.02-130.65-.02-195.97v-4.25h-.01c-.19-.04-.36-.1-.54-.16-.34-.06-.67-.14-.97-.24-.34-.06-.67-.14-.97-.24-.35-.07-.67-.14-.97-.25-.35-.06-.68-.14-.98-.24-.34-.06-.67-.14-.97-.24-.34-.07-.67-.14-.97-.25-.35-.06-.68-.14-.98-.24-.34-.06-.67-.14-.97-.24-.34-.07-.67-.14-.97-.25-.35-.06-.68-.14-.98-.24-.34-.06-.67-.14-.97-.24-.34-.07-.67-.14-.97-.25-.35-.06-.67-.14-.97-.24-.35-.06-.68-.14-.98-.24-.34-.07-.67-.14-.97-.25-.34-.06-.67-.13-.97-.24-.35-.06-.68-.14-.98-.24-.34-.06-.67-.14-.97-.25-.34-.06-.67-.13-.97-.24-.35-.06-.67-.14-.98-.24-.34-.06-.67-.14-.97-.25-.34-.06-.67-.13-.97-.24-.34-.06-.67-.14-.97-.24-.35-.06-.68-.14-.98-.24-.34-.07-.67-.14-.97-.25-.34-.06-.67-.14-.97-.24-.35-.06-.68-.14-.98-.24-.34-.07-.67-.14-.97-.25-.34-.06-.67-.14-.97-.24-.35-.06-.67-.14-.97-.24-.35-.07-.68-.14-.98-.25-.34-.06-.67-.14-.97-.24-.29-.05-.57-.12-.83-.2-.05-.01-.1-.03-.14-.04-1.41-.26-2.46-.86-3.16-1.81-.25-.34-.45-.73-.61-1.17-.07-.18-.13-.36-.18-.56-.03-.11-.06-.23-.08-.35-.03-.14-.05-.27-.07-.42-.01-.02-.01-.05-.01-.07-.03-.2-.06-.41-.07-.62-.02-.24-.03-.49-.03-.75-.03-7.33,.01-14.66-.06-21.99-.05-4.87,2.66-6.21,7.03-6.12,7.33,.14,14.66,.14,21.99-.02,7.63-.15,7.82-.26,7.86-8,.1-23.67,.02-47.33,.05-70.99,.01-10.06,.04-10.07,9.36-13.4,12.85-4.6,25.69-9.2,38.56-13.75,.5-.18,1.01-.4,1.54-.57,.09-.04,.18-.06,.28-.09,.07-.02,.14-.04,.22-.06,.09-.03,.18-.05,.28-.07,.37-.07,.76-.11,1.17-.08,.09,.01,.17,.02,.26,.03,.24,.04,.48,.11,.73,.21,.03,0,.06,.01,.09,.02,.29,.03,.58,.1,.89,.22,.31,.03,.64,.11,.97,.24,.31,.03,.64,.12,.97,.25,.32,.02,.64,.11,.98,.24,.31,.03,.63,.11,.97,.24,.31,.03,.64,.12,.97,.25,.32,.02,.64,.11,.97,.24,.32,.03,.64,.11,.98,.24,.31,.03,.64,.12,.97,.25,.31,.02,.64,.11,.97,.24,.32,.03,.64,.11,.98,.24,.31,.03,.64,.12,.97,.25,.31,.02,.64,.11,.97,.24,.32,.03,.64,.11,.98,.24,.31,.03,.63,.12,.97,.25,.31,.02,.64,.11,.97,.24,.32,.03,.64,.11,.97,.24,.32,.03,.64,.11,.98,.25,.31,.02,.64,.11,.97,.24,.31,.03,.64,.11,.97,.24,.32,.03,.64,.11,.98,.24,.31,.03,.64,.12,.97,.25,.31,.03,.64,.11,.97,.24,.32,.03,.64,.11,.97,.24,.32,.03,.64,.12,.98,.25,.31,.03,.64,.11,.97,.24,.31,.03,.64,.11,.97,.24,.32,.03,.64,.12,.98,.25,.31,.03,.64,.11,.97,.24,.31,.03,.64,.11,.97,.24,.32,.03,.64,.12,.98,.25,.31,.03,.63,.11,.97,.24,.31,.03,.64,.11,.97,.24,.32,.03,.64,.12,.97,.25,.32,.03,.64,.11,.98,.24,.31,.03,.64,.11,.97,.24,.46,.04,.94,.17,1.44,.45,1.98,2.88,.93,6.31,.94,9.49,.12,27.94,.08,55.88,.09,83.82,0,1.43,.02,2.86,.01,4.29,1.18,.01,2.36,.01,3.54,.01,4.67,.01,9.34,.17,14-.02,.76-.03,1.44,0,2.06,.08,.23,.03,.45,.07,.66,.12,.22,.05,.42,.11,.62,.17h.02c.34,.06,.66,.14,.95,.24,.35,.06,.67,.15,.98,.25,.34,.05,.66,.14,.97,.24,.35,.06,.67,.14,.97,.24,.35,.06,.67,.15,.97,.25,.35,.05,.67,.14,.98,.24,.35,.06,.67,.14,.97,.24,.35,.06,.67,.14,.97,.24,.35,.06,.67,.15,.98,.25,.35,.06,.67,.14,.97,.24,.35,.06,.67,.14,.97,.24,.35,.06,.67,.15,.98,.25,.34,.06,.66,.14,.97,.24,.35,.06,.67,.14,.97,.24,.35,.06,.67,.15,.97,.25,.35,.06,.67,.14,.98,.24,.35,.06,.67,.14,.97,.24,.35,.06,.67,.15,.97,.25,.35,.06,.67,.14,.98,.24,.34,.06,.67,.14,.97,.24,.35,.06,.67,.15,.97,.25,.35,.06,.67,.14,.98,.24,.34,.06,.66,.14,.97,.24,.35,.06,.67,.15,.97,.25,.35,.06,.67,.14,.97,.24,.35,.06,.67,.14,.98,.24,.35,.06,.67,.15,.97,.25,.35,.06,.67,.14,.97,.24,.35,.06,.67,.14,.98,.24,.34,.06,.66,.15,.97,.25,.35,.06,.67,.14,.97,.24,.35,.06,.67,.14,.98,.24,.34,.06,.66,.15,.97,.25,.35,.05,.67,.14,.97,.24,.35,.06,.67,.14,.97,.24,.35,.06,.67,.15,.98,.25,2.96,.5,4.31,2.44,4.19,6.29-.18,6.32,.06,12.66-.05,18.99-.13,8.36-.2,8.5-8.3,8.57-13.67,.13-27.33,0-41,.05-10.72,.04-10.83,.08-10.82,10.19,.02,68.52,.12,137.04,.11,205.55,0,7.46,1.33,14.58,4.22,21.4,3.28,7.75,8.36,13.7,15.32,17.75,0,0,0,.01,.02,.01,.22,.05,.43,.11,.63,.17,.02,0,.03,.01,.05,.01,.32,.07,.63,.14,.92,.23,.34,.07,.67,.15,.98,.25,.34,.06,.66,.14,.97,.24,.34,.07,.66,.15,.97,.24,.34,.07,.67,.15,.97,.25,.35,.06,.67,.14,.98,.24,.34,.07,.66,.15,.97,.24,.34,.07,.67,.15,.97,.25,.34,.06,.67,.14,.98,.24,.34,.07,.66,.15,.97,.24,.34,.07,.67,.15,.97,.25,.34,.06,.67,.14,.98,.24,.34,.07,.66,.15,.97,.24,.34,.07,.66,.15,.97,.25,.34,.06,.67,.14,.97,.24,.35,.07,.67,.15,.98,.24,.34,.07,.66,.15,.97,.25,.34,.06,.67,.14,.97,.24,.34,.07,.67,.15,.98,.24,.34,.07,.66,.15,.97,.24,.34,.07,.67,.15,.97,.25,.34,.07,.67,.15,.97,.24,.35,.07,.67,.15,.98,.24,.34,.07,.66,.15,.97,.25,.34,.07,.67,.15,.97,.24,.35,.07,.67,.15,.98,.24,.34,.07,.66,.15,.97,.25,.34,.07,.67,.15,.97,.24,.34,.07,.67,.15,.98,.24,.34,.07,.66,.15,.97,.25,.34,.06,.67,.14,.97,.24,.34,.07,.67,.15,.97,.24,.35,.07,.67,.15,.98,.25,.34,.06,.66,.14,.97,.24,.34,.07,.67,.15,.97,.24,.34,.07,.67,.15,.98,.25,3.49,.69,5.13,2.79,4.87,7.16Z"/>
    </g>
    <path class="cls-1" d="M1250.07,1268.29c.03,2-.02,3.97-.16,5.89-.02,.36-.05,.73-.08,1.09-.11,1.24-.25,2.47-.42,3.68-.06,.38-.12,.76-.18,1.14-.01,.09-.03,.19-.04,.28-.09,.48-.17,.95-.26,1.42-.09,.49-.19,.98-.3,1.46-.09,.43-.19,.86-.3,1.29-.01,.09-.04,.18-.06,.27-.08,.33-.16,.66-.25,.98-.18,.69-.37,1.37-.58,2.04-.1,.36-.21,.71-.33,1.07-.15,.45-.3,.91-.46,1.36-.13,.39-.28,.78-.42,1.17-.06,.17-.13,.34-.19,.51-.13,.33-.26,.65-.39,.97-.18,.44-.36,.87-.55,1.3-.19,.43-.38,.85-.58,1.28-.2,.44-.41,.87-.63,1.3-.4,.81-.83,1.61-1.27,2.39-.23,.42-.47,.84-.72,1.25-.67,1.13-1.39,2.24-2.14,3.31-.27,.39-.55,.77-.83,1.15-.27,.37-.54,.73-.82,1.08-.55,.71-1.12,1.4-1.7,2.08-.58,.67-1.17,1.33-1.77,1.97-.01,.01-.02,.03-.04,.04-.3,.31-.61,.63-.91,.93-.32,.32-.63,.63-.96,.94-.32,.3-.64,.61-.97,.91-.33,.3-.66,.59-.99,.88-.34,.29-.67,.58-1.01,.86-.35,.29-.69,.57-1.04,.84-.69,.55-1.4,1.08-2.12,1.6-1.44,1.04-2.93,2.01-4.46,2.9-.57,.34-1.15,.67-1.74,.98-1.17,.64-2.36,1.24-3.58,1.79-.61,.28-1.22,.55-1.84,.8-1.03,.43-2.08,.84-3.13,1.21-1.06,.38-2.13,.72-3.21,1.04-1.3,.39-2.61,.73-3.93,1.02-.89,.19-1.78,.37-2.68,.54-.54,.1-1.09,.19-1.64,.28h-.05c-.55,.09-1.1,.16-1.65,.23-.04,0-.08,.01-.12,.01-.55,.07-1.11,.13-1.67,.19-.05,0-.1,0-.16,.02-.02,0-.04,0-.07,.01-.48,.04-.96,.08-1.45,.11-.1,.02-.21,.02-.31,.03-.58,.04-1.16,.07-1.74,.09-.05,.01-.11,.01-.16,.01-.6,.03-1.19,.04-1.79,.05-33.13,.36-59.66-26.9-59.2-59.71,.46-32.83,26.69-58.64,59.39-58.44,.6,.01,1.21,.03,1.81,.05,.24,.01,.48,.03,.73,.05,.51,.02,1.02,.05,1.54,.1,.57,.04,1.15,.1,1.72,.16,.23,.02,.45,.05,.68,.08,.53,.06,1.06,.13,1.58,.21,.06,0,.11,.01,.16,.02,.6,.08,1.19,.18,1.78,.29,.1,0,.2,.03,.29,.04,1.35,.25,2.69,.53,4.02,.86,6.1,1.51,12.08,3.92,17.57,7.27h.01c.16,.09,.3,.2,.46,.3,.57,.36,1.14,.73,1.7,1.1,1.13,.76,2.23,1.55,3.3,2.39,.54,.42,1.07,.85,1.59,1.29,.19,.16,.38,.31,.56,.47,.55,.47,1.08,.97,1.61,1.47,.32,.29,.63,.58,.94,.88,.48,.47,.95,.96,1.41,1.45,.35,.37,.69,.74,1.03,1.12,.42,.47,.83,.94,1.24,1.42,.39,.47,.76,.96,1.14,1.44,.33,.43,.67,.85,.99,1.3,.35,.47,.69,.95,1.02,1.43,.33,.49,.65,.98,.97,1.48s.62,1,.92,1.51c.6,1,1.16,2.03,1.68,3.09,.01,0,.02,.03,.02,.05,.27,.54,.53,1.08,.78,1.63,.26,.55,.5,1.11,.74,1.68,.23,.55,.45,1.1,.67,1.67,.02,.03,.03,.06,.03,.09,.21,.54,.41,1.09,.6,1.65,.22,.61,.42,1.23,.61,1.87,.17,.54,.33,1.09,.48,1.64,.14,.51,.28,1.04,.41,1.58,.09,.36,.18,.73,.26,1.1,.11,.46,.21,.93,.3,1.41,.13,.64,.25,1.28,.36,1.93,.11,.66,.22,1.34,.31,2.02,.11,.79,.21,1.59,.28,2.41,.07,.58,.12,1.17,.16,1.76,.06,.71,.1,1.43,.13,2.15,.04,.73,.06,1.46,.07,2.2Z"/>
    <polygon class="cls-2" points="1243.01 428.15 1243 428.15 1243 428.14 1243.01 428.15"/>
    <path d="M1367.06,246.95c.46-3.36-.16-6.61-.91-9.88-6.94-30.34-23.18-54.98-46.43-75.16-24-20.83-51.96-34.68-81.81-44.9-11.03-3.78-22.14-7.04-33.32-9.87-.32-.08-.64-.16-.97-.24-.32-.09-.65-.17-.98-.25-.32-.08-.64-.16-.97-.24-.32-.08-.65-.16-.97-.24-.32-.09-.65-.17-.97-.25-.32-.08-.65-.16-.98-.24-.32-.08-.65-.16-.97-.25-.32-.08-.64-.16-.97-.24-.32-.08-.65-.16-.97-.24-.33-.08-.65-.16-.98-.24-.32-.09-.64-.16-.97-.25-.32-.08-.65-.16-.97-.24-.33-.08-.65-.16-.98-.24-.32-.09-.65-.17-.97-.25-.32-.08-.65-.16-.97-.24s-.65-.16-.98-.24c-.32-.09-.64-.17-.97-.25-.32-.08-.65-.16-.97-.24-.32-.08-.65-.16-.97-.24-.33-.09-.65-.16-.98-.25-.32-.08-.64-.16-.97-.24-.32-.08-.65-.16-.97-.24-.33-.09-.65-.16-.98-.25-.32-.08-.65-.16-.97-.24s-.65-.16-.97-.24c-.32-.09-.65-.16-.98-.25-.32-.08-.64-.16-.97-.24-.32-.08-.64-.16-.97-.24-.32-.08-.65-.16-.98-.25-.32-.08-.64-.16-.97-.24-.32-.08-.64-.16-.97-.24-.32-.08-.65-.16-.97-.25-.33-.08-.65-.16-.98-.24-.32-.08-.65-.16-.97-.24s-.65-.16-.97-.24c-.32-.09-.65-.17-.98-.25-2.76-.7-5.52-1.38-8.28-2.03-.91-.21-1.82-.42-2.73-.63-.91-.21-1.82-.42-2.73-.62-1.99-.45-3.98-.88-5.98-1.29-1.66-.35-3.32-.69-4.98-1.02-1.75-.35-3.5-.69-5.25-1.02-.11-.02-.22-.04-.33-.06-1.78-.34-3.56-.66-5.34-.98-1.86-.33-3.73-.65-5.59-.95-1.78-.3-3.55-.58-5.32-.86-1.91-.3-3.82-.59-5.73-.86-.92-.14-1.85-.27-2.77-.4-3.54-.5-7.09-.97-10.64-1.4-.48-.06-.96-.12-1.43-.18-3.37-.4-6.76-.79-10.14-1.14-2.09-.22-4.18-.43-6.27-.62-1.35-.14-2.71-.27-4.07-.38-2.13-.2-4.26-.39-6.39-.56-1.14-.1-2.29-.19-3.44-.27-1.25-.1-2.5-.2-3.75-.28-1.17-.1-2.34-.18-3.52-.26-1.08-.07-2.16-.15-3.24-.21-1.52-.1-3.04-.2-4.56-.29-4.08-.24-8.16-.46-12.25-.66-.94-.05-1.89-.09-2.84-.13-1.58-.07-3.15-.14-4.73-.2-4.04-.17-8.08-.31-12.12-.44-7.71-.24-15.43-.39-23.14-.44-35.53-.22-71.03,1.6-106.41,5.64-38.45,4.4-76.35,11.4-112.74,24.92-28.96,10.76-56.05,24.88-77.58,47.75-15.67,16.64-26.05,35.81-29.01,58.98-1,7.83,.59,15.2,.55,22.8-.26,43.98-.15,87.97-.11,131.96,0,3.19-.06,5.55,.03,7.29,.01,.25,.02,.48,.04,.7,.01,.11,.02,.21,.03,.32,.02,.19,.04,.38,.07,.55,0,.02,.01,.03,.01,.04,.03,.19,.06,.37,.1,.53,.02,.1,.05,.18,.07,.27,.04,.15,.09,.29,.14,.42,.06,.14,.12,.27,.18,.39,.03,.06,.07,.12,.1,.17,.22,.34,.5,.61,.85,.82,.24,.13,.5,.25,.81,.34,.23,.07,.48,.12,.75,.17,.01,0,.02,.01,.04,.01,.27,.1,.59,.17,.93,.23,.29,.11,.61,.19,.97,.25,.29,.1,.61,.18,.98,.24,.28,.1,.61,.18,.97,.24,.29,.11,.61,.18,.97,.25,.29,.1,.61,.18,.98,.24,.28,.1,.61,.18,.97,.24,.28,.11,.61,.18,.97,.25,.29,.1,.61,.18,.97,.24,.29,.1,.61,.18,.98,.24,.28,.1,.61,.18,.97,.25,.29,.1,.61,.18,.97,.24,.29,.1,.61,.18,.98,.24,.28,.1,.61,.18,.97,.25,.29,.1,.61,.18,.97,.24,.29,.1,.61,.18,.98,.24,.28,.1,.61,.18,.97,.25,.28,.1,.61,.18,.97,.24,.29,.1,.61,.18,.97,.24,.29,.1,.61,.18,.98,.25,.28,.1,.61,.18,.97,.24,.29,.1,.61,.18,.97,.24,.29,.1,.61,.18,.98,.25,.28,.1,.61,.18,.97,.24,.29,.1,.61,.18,.97,.24,.29,.1,.61,.18,.98,.24,.28,.11,.61,.19,.97,.25,.28,.1,.61,.18,.97,.24,.29,.1,.61,.18,.97,.24,.29,.11,.61,.19,.98,.25,.28,.1,.61,.18,.97,.24,.29,.1,.61,.18,.97,.24,.29,.11,.61,.19,.98,.25,.28,.1,.61,.18,.97,.24,.28,.1,.61,.18,.97,.24,.29,.11,.61,.19,.97,.25,1.75,.62,4.84,.42,10.32,.42,93.39,.03,186.78,.01,280.18,.01h0c-.05,5.19-.03,10.37,0,15.56,0,3.34,.02,6.68,.02,10.02-.03,14.39,.8,12.78-13.04,12.78-152.96,.03-305.93-.12-458.89,.1-51.06,.08-93.68,20.76-129.06,56.6-19.83,20.09-34.24,44.1-45.57,69.94-22.54,51.39-30.6,105.87-33.39,161.27-1.92,37.92-.71,75.83,3.1,113.67,3.41,33.87,9.04,67.29,19.15,99.78,13.86,44.47,34.13,85.42,69.82,116.81,2.52,2.22,5.08,4.36,7.67,6.41,.53,.43,1.07,.85,1.61,1.27,.8,.62,1.6,1.24,2.4,1.84,.62,.47,1.25,.93,1.87,1.38,.72,.53,1.43,1.05,2.16,1.56,.54,.38,1.08,.76,1.62,1.14,2.19,1.52,4.41,2.98,6.64,4.38,.98,.61,1.96,1.21,2.95,1.8,.27,.16,.54,.32,.81,.48,1.39,.82,2.78,1.61,4.18,2.38,.7,.38,1.4,.76,2.11,1.14,.7,.37,1.41,.74,2.12,1.1s1.42,.72,2.14,1.07c.71,.35,1.43,.69,2.15,1.03,.76,.36,1.53,.71,2.3,1.06,.68,.31,1.36,.61,2.04,.9,2.19,.94,4.4,1.83,6.63,2.67,.04,.01,.09,.03,.13,.05,1.44,.53,2.9,1.05,4.36,1.54,.7,.23,1.4,.46,2.1,.69,.05,.01,.11,.03,.17,.05,.76,.24,1.52,.47,2.28,.7s1.53,.45,2.3,.67c.05,.01,.11,.03,.17,.05,.71,.19,1.42,.39,2.14,.57,.78,.2,1.55,.4,2.33,.59,.32,.08,.64,.16,.97,.24,.32,.08,.65,.16,.97,.24s.65,.17,.97,.25c.33,.08,.65,.16,.98,.24,.32,.08,.64,.16,.97,.24,.32,.08,.65,.17,.97,.25,.33,.08,.65,.16,.98,.24,.32,.08,.64,.16,.97,.24,.32,.08,.65,.17,.97,.25,.33,.08,.65,.16,.98,.24,.32,.08,.64,.16,.97,.24,.32,.08,.64,.17,.97,.24,.32,.09,.65,.17,.97,.25,.33,.08,.65,.16,.98,.24,.32,.08,.64,.17,.97,.24,.32,.09,.65,.17,.97,.25,.33,.08,.65,.16,.98,.24,.32,.08,.64,.17,.97,.25,.32,.08,.65,.16,.97,.24,.32,.08,.65,.16,.98,.24,.32,.08,.64,.17,.97,.24,.32,.09,.64,.17,.97,.25,.32,.08,.65,.16,.97,.24,.33,.08,.65,.17,.98,.24,.32,.09,.64,.17,.97,.25,.32,.08,.65,.16,.97,.24,.33,.08,.65,.16,.98,.24,.32,.09,.64,.17,.97,.25,.32,.08,.65,.16,.97,.24s.65,.16,.97,.24c.33,.09,.65,.17,.98,.25,.32,.08,.64,.16,.97,.24,.32,.08,.65,.16,.97,.24,.33,.08,.65,.17,.98,.25,.32,.08,.64,.16,.97,.24,.32,.08,.65,.16,.97,.24,11.46,2.88,23.49,4.35,36.13,4.24,28.33-.24,56.66-.04,84.98-.05,5.67,0,11.33,0,17-.02q10.56-.05,10.63-10.13c.02-2,.01-4,.01-6,0-48.33,.18-96.65-.07-144.97-.17-31.1,5.89-60.87,18.02-89.38,18.36-43.15,48.81-74.11,93.04-90.85,22.33-8.45,45.67-11.59,69.31-13.1,.99,.12,1.98,.33,2.97,.33,111.14,0,222.28,.05,333.41-.14,6.52-.01,13.35,1.01,19.62-2.11,11.24,.45,21.96-2.04,32.47-5.73,3.39,.13,6.59-.47,9.47-2.38,10.66-2.35,20.81-6,30.13-11.78,4.45-1.09,8.41-3.13,11.94-6.03,19.35-10.16,35.4-24.06,47.78-42.12,2.94-2.35,4.48-5.71,6.41-8.79,18.45-29.41,25.18-62.18,25.34-96.15,.48-104.17,.18-208.34,.14-312.51,0-3.59,.8-7.37-1.61-10.63Zm-608.37-3.9c.41-32.91,27.48-59.1,60.56-58.59,32.19,.49,58.42,27.82,58.1,60.2-.28,27.81-21.33,58.7-59.67,58.47-39.83-.25-59.98-33.28-58.99-60.08Z"/>
    <path d="M877.35,244.66c-.28,27.81-21.33,58.7-59.67,58.47-39.83-.25-59.98-33.28-58.99-60.08,.41-32.91,27.48-59.1,60.56-58.59,32.19,.49,58.42,27.82,58.1,60.2Z"/>
    <path d="M1092.32,84.94c3.38,.35,6.77,.74,10.14,1.14-3.38-.4-6.76-.79-10.14-1.14Z"/>
    <path class="cls-1" d="M877.35,244.66c-.28,27.81-21.33,58.7-59.67,58.47-39.83-.25-59.98-33.28-58.99-60.08,.41-32.91,27.48-59.1,60.56-58.59,32.19,.49,58.42,27.82,58.1,60.2Z"/>
  </g>
</svg>