<?xml version="1.0" encoding="UTF-8"?>
<svg id="Calque_2" data-name="Calque 2" xmlns="http://www.w3.org/2000/svg" viewBox="0 0 2000 2310">
  <defs>
    <style>
      .cls-1 {
        fill: #fff;
      }

      .cls-2 {
        fill: #3c719d;
      }

      .cls-3 {
        fill: #3673a5;
      }

      .cls-4 {
        fill: none;
        stroke: red;
        stroke-miterlimit: 10;
        stroke-width: 2px;
      }

      .cls-5 {
        fill: #646464;
      }

      .cls-6 {
        fill: #ffd342;
      }
    </style>
  </defs>
  <g id="repères">
    <g>
      <line class="cls-4" x1="41" y1="2224" x2="41" y2="2310"/>
      <line class="cls-4" y1="2267" x2="80" y2="2267"/>
    </g>
    <g>
      <line class="cls-4" x1="1961" y1="2224" x2="1961" y2="2310"/>
      <line class="cls-4" x1="1920" y1="2267" x2="2000" y2="2267"/>
    </g>
    <g>
      <line class="cls-4" x1="1961" x2="1961" y2="86"/>
      <line class="cls-4" x1="1920" y1="43" x2="2000" y2="43"/>
    </g>
    <g>
      <line class="cls-4" x1="41" x2="41" y2="86"/>
      <line class="cls-4" y1="43" x2="80" y2="43"/>
    </g>
    <g>
      <line class="cls-4" x1="1961" y1="1095" x2="1961" y2="1181"/>
      <line class="cls-4" x1="1920" y1="1138" x2="2000" y2="1138"/>
    </g>
    <g>
      <line class="cls-4" x1="41" y1="1095" x2="41" y2="1181"/>
      <line class="cls-4" y1="1138" x2="80" y2="1138"/>
    </g>
    <g>
      <line class="cls-4" x1="1002" y1="2224" x2="1002" y2="2310"/>
      <line class="cls-4" x1="961" y1="2267" x2="1041" y2="2267"/>
    </g>
    <g>
      <line class="cls-4" x1="1002" x2="1002" y2="86"/>
      <line class="cls-4" x1="961" y1="43" x2="1041" y2="43"/>
    </g>
  </g>
  <g id="logos_strates" data-name="logos strates">
    <path class="cls-6" d="M1246.57,1081.81c-77.33,0-154.65-.01-231.98,.01-12.89,0-11.14-1.07-11.24,11.17-.08,9.67,.12,19.33-.07,29-.08,4.23,1.34,6.23,5.75,5.85,2.32-.2,4.66-.03,7-.03,100.66,0,201.32,0,301.98,0,2,0,4-.02,6,0,8.57,.1,8.62,.11,8.66,8.77,.24,48.62,.14,97.24,.79,145.86,.39,28.73-10.71,52.26-29.95,72.66-20.59,21.82-46.36,35.63-73.84,46.22-34.88,13.44-71.34,20.54-108.37,25.23-51.98,6.59-104.14,6.99-156.36,5.19-48.24-1.66-95.91-7.75-142.35-21.45-35.39-10.43-68.61-25.26-96.93-49.63-24.47-21.05-41.47-46.72-47.65-78.64-1.86-9.61-3.93-19.54-1.48-29.59,.69-2.83,.15-5.97,.15-8.97,0-99.66-.32-199.32,.17-298.98,.18-36.76,10.38-70.85,32.96-100.56,19.56-25.74,45.63-42.39,75.54-53.38,27.4-10.07,55.78-14.24,85.03-14.17,106.99,.27,213.98,.19,320.97,.05,30.58-.04,60.27-5.37,87.97-18.72,41.85-20.17,68.38-53.86,83.7-97.09,9.3-26.27,13.56-53.4,13.63-81.18,.14-48,.04-95.99,.04-143.99,0-2.33,.21-4.69-.04-7-.53-5.07,2-6.51,6.51-5.98,.99,.12,2,.02,3,.01,36.33-.09,72.66-.54,108.98-.15,24.07,.26,46.34,7.76,67.23,19.55,34.19,19.29,58.22,48.07,76.35,82.2,19.07,35.89,29.92,74.49,36.55,114.39,4.68,28.19,7.18,56.55,8.43,85.12,.76,17.31,1.42,34.63,.82,51.88-1.98,57.28-8.24,113.9-29.36,167.9-12.01,30.7-28.28,58.85-51.43,82.38-30.33,30.83-66.99,49.64-110.31,54.89-6.97,.85-13.88,1.18-20.85,1.18-75.33,.01-150.65,0-225.98,0Zm-55.16,128.37c-32.7-.21-58.92,25.61-59.39,58.44-.46,32.8,26.07,60.06,59.19,59.71,31.4-.33,59.42-23.12,58.85-60.04-.6-39.07-31.19-57.68-58.66-58.11Z"/>
    <path class="cls-5" d="M153.17,1992.18v185.78c-4.29,1.66-7.12-.67-10.13-1.7-11.65-3.99-23.26-8.1-34.87-12.23-8.8-3.13-8.79-3.17-8.88-12.89-.01-1.33,0-2.67,0-4,0-131.98,.06-263.95-.15-395.93-.01-8.22,1.86-14.29,8.07-20.16,20.41-19.31,44.87-30.73,71.3-38.7,19.86-5.99,40.41-8.99,60.95-9.47,30.06-.7,59.2,4.13,83.28,24.57,18.73,15.9,31.17,36.27,39.99,58.9,9.27,23.77,13.37,48.53,14.77,74.02,1.41,25.8,.02,51.25-6.81,76.07-10.04,36.48-28.76,67.22-62.16,87.22-14.23,8.52-29.83,12.83-46.23,14.77-36.63,4.33-69.73-6.16-101.21-23.69-1.73-.96-3.52-1.83-5.3-2.7-.25-.12-.63,.02-2.61,.13Zm.12-144.1c0,32.29,.13,64.58-.12,96.87-.05,6.01,1.76,9.78,7.08,12.85,10.12,5.83,20.45,11.17,31.34,15.29,13.43,5.09,27.43,9.08,41.76,8.53,30.62-1.18,54.97-12.76,69.95-47.11,9.47-21.71,12.16-44.83,13.27-68.1,1.03-21.6-.12-43.19-3.58-64.59-2.78-17.16-7.33-33.76-15.91-49.07-11.66-20.8-29.64-32.32-53.07-34.1-28.57-2.17-55.27,5.39-80.67,18.28-7.41,3.76-10.4,8.68-10.26,17.27,.51,31.28,.2,62.58,.2,93.88Z"/>
    <path class="cls-5" d="M705.29,1858.43c0,41.65,.03,83.3-.01,124.94-.03,28.3-1.37,56.51-6.21,84.45-2.16,12.49-5.24,24.83-10.9,36.21-10.47,21.08-27.6,35.61-47.93,46.6-26.69,14.43-55.3,22.69-85.43,25.84-5.94,.62-11.91,1.06-17.83,1.86-5.51,.75-7.72-1.85-8.78-6.92-1.44-6.83-3.3-13.58-5.32-20.26-1.37-4.52-.54-6.61,4.6-7.22,15.19-1.79,30.23-4.6,45.18-7.83,18.41-3.98,35.74-10.44,50.82-22.15,13.7-10.64,22.43-24.24,25.9-41.33,4.86-23.95,5.75-48.16,5.28-72.47-.12-6.37-.72-6.71-7.29-4.04-14.52,5.91-29.34,10.82-44.61,14.4-22.78,5.35-45.91,8.75-69.23,7.13-39.22-2.74-69.64-20.73-88.74-55.81-5.8-10.66-8.15-22.38-8.13-34.64,.1-71.97,.05-143.94,.06-215.9,0-10.46,.04-10.48,10.02-13.89,11.97-4.09,23.92-8.25,35.93-12.19,5.63-1.84,6.22-1.3,6.57,4.71,.15,2.66,.05,5.33,.05,7.99,0,68.3,.01,136.61-.01,204.91,0,9.02,1,17.93,3.16,26.65,7.35,29.7,32.81,46.33,60.57,50.6,34.59,5.33,64.82-6.16,93.46-24.02,3.5-2.18,5.23-4.78,4.86-8.94-.24-2.64-.03-5.33-.03-7.99,0-77.97,0-155.93,0-233.9,0-2.67,.18-5.34-.02-7.99-.4-5.31,2.2-6.92,7.16-6.85,13.32,.18,26.66,.22,39.98,0,5.26-.09,6.97,2.09,6.93,7.12-.16,17.66-.05,35.32-.05,52.98,0,35.98,0,71.97,0,107.95Z"/>
    <path class="cls-5" d="M1030.71,1725.63c10.9-7.13,20.31-12.64,30.04-17.64,26.33-13.51,54.4-19.58,83.77-19.49,55.1,.17,88.61,42.84,92.88,85.67,1.19,11.98,1.29,23.91,1.3,35.88,.03,61.99,.01,123.99,.01,185.98,0,2.33,.04,4.67,0,7-.18,8.65-.19,8.74-9.1,8.8-12.33,.09-24.66,.12-37-.02-7.55-.09-7.63-.31-7.88-8.01-.08-2.33-.02-4.67-.02-7,0-65.33,.2-130.65-.11-195.98-.1-21.18-6.13-40.84-20.14-57.23-9.23-10.81-21.11-16.8-35.59-17.82-17.12-1.2-33.08,2.84-48.48,9.61-15.59,6.86-30.15,15.57-44.31,25.05-5.09,3.41-5.4,7.76-5.39,12.91,.06,50.33,.03,100.66,.03,150.98,0,26,.04,51.99-.02,77.99-.02,9.38-.12,9.45-9.39,9.51-12.33,.07-24.67-.13-36.99,.07-5.09,.08-7.44-1.78-7.04-6.97,.18-2.32,.02-4.66,.02-7,0-155.65,0-311.3,0-466.95,0-2.67,.11-5.34,.01-8-.13-3.47,1.29-5.62,4.67-6.69,14.29-4.5,28.55-9.1,42.83-13.61,3.59-1.13,5.88-.18,5.85,4.06-.02,3,.05,6,.05,9,0,65.66,0,131.32,0,196.98,0,3.63,0,7.27,0,12.9Z"/>
    <path class="cls-5" d="M1581.45,1840.73c-.44,41.27-6.77,74.62-24.21,105.22-26.55,46.61-66.16,71.54-120.33,72.54-30.48,.56-58.98-5.77-83.92-23.93-26.15-19.05-43.02-45-53.8-75.19-9.42-26.38-12.82-53.76-11.73-81.5,1.46-37.04,11.6-71.39,34.99-101.08,24.28-30.82,55.27-49.09,94.7-53.09,35.43-3.6,68.42,2.7,97.78,23.14,33.54,23.36,53.11,56.24,61.99,95.76,3.29,14.66,4.81,29.54,4.52,38.13Zm-58.72,7.49c-.09-9.31-.37-18.57-1.25-27.88-1.65-17.46-5.88-34.16-13.25-49.93-10.58-22.64-26.72-39.49-51.32-47.22-26.91-8.45-64.08-1.25-85.17,24.69-10.57,12.99-16.89,27.8-20.69,43.85-7.06,29.83-7.31,60.02-3.51,90.24,2.89,22.96,9.38,44.8,21.02,65.12,24.04,41.96,71.08,45.02,104.4,28.77,7.47-3.64,13.8-9.01,19.46-15.33,11.44-12.78,18.06-27.92,22.37-44.14,5.93-22.3,8.17-45.12,7.95-68.17Z"/>
    <path class="cls-5" d="M1629.29,1873.33c0-42.32,.22-84.64-.2-126.96-.08-7.72,2.74-11.93,8.77-16.19,34.06-24.06,71.29-39.84,112.79-45.44,29.88-4.03,59.21-3.08,87.07,9.52,23.8,10.77,41.5,27.65,48.24,53.83,1.9,7.37,2.79,15.01,2.78,22.71-.05,76.64-.03,153.29-.03,229.93,0,1.67-.09,3.34-.01,5,.19,4.1-1.47,6.14-5.81,6.11-14-.1-27.99-.09-41.99,0-4.07,.03-6.32-1.41-6.16-5.77,.1-2.66-.02-5.33-.02-8,0-69.31,.3-138.63-.14-207.94-.19-29.73-12.93-52.83-40.82-65.47-16.82-7.63-34.81-8.14-52.93-5.61-17.07,2.39-32.63,8.74-47.67,16.99-7.59,4.17-10.68,9.13-10.64,18.09,.35,81.64,.23,163.29,.18,244.93,0,13.46,1.85,12.74-13.03,12.76-10.33,.01-20.66,.06-30.99-.02-9.24-.07-9.35-.14-9.36-9.54-.04-42.99-.02-85.98-.02-128.96Z"/>
    <path class="cls-5" d="M853.59,1583.82c1.98,2.89,.93,6.31,.95,9.5,.12,27.94,.08,55.88,.08,83.82,0,2.33,.08,4.67-.06,6.99-.31,4.81,2.1,6.39,6.62,6.33,11-.14,22-.03,32.99-.02,4.67,0,9.34,.16,14-.02,4.63-.18,6.71,1.66,6.57,6.41-.19,6.33,.05,12.66-.05,18.99-.14,8.36-.2,8.5-8.31,8.57-13.66,.12-27.33,0-40.99,.05-10.72,.03-10.83,.07-10.83,10.19,.02,68.52,.12,137.03,.12,205.55,0,7.46,1.33,14.57,4.22,21.39,4.09,9.66,10.97,16.53,20.8,20.39,9.06,3.56,18.47,5.55,28.17,6.05,4.9,.25,7.21,2.27,6.91,7.41-.31,5.31-.13,10.66-.12,15.99,0,3.27-1.59,4.81-4.84,4.95-23.45,1.06-46.57,.42-68.18-10.66-24.23-12.43-37.38-32.26-40.3-59.09-.5-4.62-.58-9.31-.58-13.97-.04-65.32-.03-130.64-.02-195.96,0-13.34,.61-12.22-12.66-12.27-6-.02-12-.14-18,0-4.2,.1-6.18-1.82-6.21-5.91-.04-7.33,0-14.66-.06-21.99-.05-4.87,2.66-6.21,7.03-6.12,7.33,.14,14.67,.14,21.99-.01,7.62-.16,7.82-.27,7.86-8.01,.1-23.66,.03-47.32,.05-70.99,.01-10.06,.05-10.07,9.36-13.4,12.85-4.6,25.7-9.2,38.56-13.75,1.51-.53,3.05-1.46,4.95-.43Z"/>
    <path class="cls-1" d="M1191.41,1210.18c27.47,.43,58.06,19.04,58.66,58.11,.57,36.92-27.45,59.71-58.85,60.04-33.12,.35-59.66-26.91-59.19-59.71,.46-32.84,26.69-58.65,59.39-58.44Z"/>
    <polygon class="cls-2" points="1243.01 428.15 1243 428.15 1243 428.14 1243.01 428.15"/>
    <path class="cls-3" d="M1331.06,237.95c.46-3.36-.16-6.61-.91-9.88-6.94-30.34-23.18-54.98-46.43-75.16-24-20.83-51.96-34.68-81.81-44.9-57.29-19.63-116.8-25.51-176.77-27.37-43.25-1.35-86.49,.28-129.55,5.2-38.45,4.4-76.35,11.4-112.74,24.92-28.96,10.76-56.05,24.88-77.58,47.75-15.67,16.64-26.05,35.81-29.01,58.98-1,7.83,.59,15.2,.55,22.8-.26,43.98-.15,87.97-.11,131.96,.01,13.47-1.14,12.18,12.52,12.19,100.64,.03,201.28,.01,301.93,.01,2.66,0,5.34,.2,7.99-.02,4.98-.41,6.35,2.15,6.29,6.61-.13,9.33,0,18.66-.01,27.99-.03,14.39,.8,12.78-13.04,12.78-152.96,.03-305.93-.12-458.89,.1-51.06,.08-93.68,20.76-129.06,56.6-19.83,20.09-34.24,44.1-45.57,69.94-22.54,51.39-30.6,105.87-33.39,161.27-1.92,37.92-.71,75.83,3.1,113.67,3.41,33.87,9.04,67.29,19.15,99.78,13.86,44.47,34.13,85.42,69.82,116.81,29.22,25.69,62.83,40.85,102.53,40.51,28.33-.24,56.66-.04,84.98-.05,5.67,0,11.33,0,17-.02q10.56-.05,10.63-10.13c.02-2,.01-4,.01-6,0-48.33,.18-96.65-.07-144.97-.17-31.1,5.89-60.87,18.02-89.38,18.36-43.15,48.81-74.11,93.04-90.85,22.33-8.45,45.67-11.59,69.31-13.1,.99,.12,1.98,.33,2.97,.33,111.14,0,222.28,.05,333.41-.14,6.52-.01,13.35,1.01,19.62-2.11,11.24,.45,21.96-2.04,32.47-5.73,3.39,.13,6.59-.47,9.47-2.38,10.66-2.35,20.81-6,30.13-11.78,4.45-1.09,8.41-3.13,11.94-6.03,19.35-10.16,35.4-24.06,47.78-42.12,2.94-2.35,4.48-5.71,6.41-8.79,18.45-29.41,25.18-62.18,25.34-96.15,.48-104.17,.18-208.34,.14-312.51,0-3.59,.8-7.37-1.61-10.63Z"/>
    <path class="cls-1" d="M877.35,244.66c-.28,27.81-21.33,58.7-59.67,58.47-39.83-.25-59.98-33.28-58.99-60.08,.41-32.91,27.48-59.1,60.56-58.59,32.19,.49,58.42,27.82,58.1,60.2Z"/>
    <path class="cls-6" d="M1246.57,1081.81c-77.33,0-154.65-.01-231.98,.01-12.89,0-11.14-1.07-11.24,11.17-.08,9.67,.12,19.33-.07,29-.08,4.23,1.34,6.23,5.75,5.85,2.32-.2,4.66-.03,7-.03,100.66,0,201.32,0,301.98,0,2,0,4-.02,6,0,8.57,.1,8.62,.11,8.66,8.77,.24,48.62,.14,97.24,.79,145.86,.39,28.73-10.71,52.26-29.95,72.66-20.59,21.82-46.36,35.63-73.84,46.22-34.88,13.44-71.34,20.54-108.37,25.23-51.98,6.59-104.14,6.99-156.36,5.19-48.24-1.66-95.91-7.75-142.35-21.45-35.39-10.43-68.61-25.26-96.93-49.63-24.47-21.05-41.47-46.72-47.65-78.64-1.86-9.61-3.93-19.54-1.48-29.59,.69-2.83,.15-5.97,.15-8.97,0-99.66-.32-199.32,.17-298.98,.18-36.76,10.38-70.85,32.96-100.56,19.56-25.74,45.63-42.39,75.54-53.38,27.4-10.07,55.78-14.24,85.03-14.17,106.99,.27,213.98,.19,320.97,.05,30.58-.04,60.27-5.37,87.97-18.72,41.85-20.17,68.38-53.86,83.7-97.09,9.3-26.27,13.56-53.4,13.63-81.18,.14-48,.04-95.99,.04-143.99,0-2.33,.21-4.69-.04-7-.53-5.07,2-6.51,6.51-5.98,.99,.12,2,.02,3,.01,36.33-.09,72.66-.54,108.98-.15,24.07,.26,46.34,7.76,67.23,19.55,34.19,19.29,58.22,48.07,76.35,82.2,19.07,35.89,29.92,74.49,36.55,114.39,4.68,28.19,7.18,56.55,8.43,85.12,.76,17.31,1.42,34.63,.82,51.88-1.98,57.28-8.24,113.9-29.36,167.9-12.01,30.7-28.28,58.85-51.43,82.38-30.33,30.83-66.99,49.64-110.31,54.89-6.97,.85-13.88,1.18-20.85,1.18-75.33,.01-150.65,0-225.98,0Zm-55.16,128.37c-32.7-.21-58.92,25.61-59.39,58.44-.46,32.8,26.07,60.06,59.19,59.71,31.4-.33,59.42-23.12,58.85-60.04-.6-39.07-31.19-57.68-58.66-58.11Z"/>
    <path class="cls-5" d="M153.17,1992.18v185.78c-4.29,1.66-7.12-.67-10.13-1.7-11.65-3.99-23.26-8.1-34.87-12.23-8.8-3.13-8.79-3.17-8.88-12.89-.01-1.33,0-2.67,0-4,0-131.98,.06-263.95-.15-395.93-.01-8.22,1.86-14.29,8.07-20.16,20.41-19.31,44.87-30.73,71.3-38.7,19.86-5.99,40.41-8.99,60.95-9.47,30.06-.7,59.2,4.13,83.28,24.57,18.73,15.9,31.17,36.27,39.99,58.9,9.27,23.77,13.37,48.53,14.77,74.02,1.41,25.8,.02,51.25-6.81,76.07-10.04,36.48-28.76,67.22-62.16,87.22-14.23,8.52-29.83,12.83-46.23,14.77-36.63,4.33-69.73-6.16-101.21-23.69-1.73-.96-3.52-1.83-5.3-2.7-.25-.12-.63,.02-2.61,.13Zm.12-144.1c0,32.29,.13,64.58-.12,96.87-.05,6.01,1.76,9.78,7.08,12.85,10.12,5.83,20.45,11.17,31.34,15.29,13.43,5.09,27.43,9.08,41.76,8.53,30.62-1.18,54.97-12.76,69.95-47.11,9.47-21.71,12.16-44.83,13.27-68.1,1.03-21.6-.12-43.19-3.58-64.59-2.78-17.16-7.33-33.76-15.91-49.07-11.66-20.8-29.64-32.32-53.07-34.1-28.57-2.17-55.27,5.39-80.67,18.28-7.41,3.76-10.4,8.68-10.26,17.27,.51,31.28,.2,62.58,.2,93.88Z"/>
    <path class="cls-5" d="M705.29,1858.43c0,41.65,.03,83.3-.01,124.94-.03,28.3-1.37,56.51-6.21,84.45-2.16,12.49-5.24,24.83-10.9,36.21-10.47,21.08-27.6,35.61-47.93,46.6-26.69,14.43-55.3,22.69-85.43,25.84-5.94,.62-11.91,1.06-17.83,1.86-5.51,.75-7.72-1.85-8.78-6.92-1.44-6.83-3.3-13.58-5.32-20.26-1.37-4.52-.54-6.61,4.6-7.22,15.19-1.79,30.23-4.6,45.18-7.83,18.41-3.98,35.74-10.44,50.82-22.15,13.7-10.64,22.43-24.24,25.9-41.33,4.86-23.95,5.75-48.16,5.28-72.47-.12-6.37-.72-6.71-7.29-4.04-14.52,5.91-29.34,10.82-44.61,14.4-22.78,5.35-45.91,8.75-69.23,7.13-39.22-2.74-69.64-20.73-88.74-55.81-5.8-10.66-8.15-22.38-8.13-34.64,.1-71.97,.05-143.94,.06-215.9,0-10.46,.04-10.48,10.02-13.89,11.97-4.09,23.92-8.25,35.93-12.19,5.63-1.84,6.22-1.3,6.57,4.71,.15,2.66,.05,5.33,.05,7.99,0,68.3,.01,136.61-.01,204.91,0,9.02,1,17.93,3.16,26.65,7.35,29.7,32.81,46.33,60.57,50.6,34.59,5.33,64.82-6.16,93.46-24.02,3.5-2.18,5.23-4.78,4.86-8.94-.24-2.64-.03-5.33-.03-7.99,0-77.97,0-155.93,0-233.9,0-2.67,.18-5.34-.02-7.99-.4-5.31,2.2-6.92,7.16-6.85,13.32,.18,26.66,.22,39.98,0,5.26-.09,6.97,2.09,6.93,7.12-.16,17.66-.05,35.32-.05,52.98,0,35.98,0,71.97,0,107.95Z"/>
    <path class="cls-5" d="M1030.71,1725.63c10.9-7.13,20.31-12.64,30.04-17.64,26.33-13.51,54.4-19.58,83.77-19.49,55.1,.17,88.61,42.84,92.88,85.67,1.19,11.98,1.29,23.91,1.3,35.88,.03,61.99,.01,123.99,.01,185.98,0,2.33,.04,4.67,0,7-.18,8.65-.19,8.74-9.1,8.8-12.33,.09-24.66,.12-37-.02-7.55-.09-7.63-.31-7.88-8.01-.08-2.33-.02-4.67-.02-7,0-65.33,.2-130.65-.11-195.98-.1-21.18-6.13-40.84-20.14-57.23-9.23-10.81-21.11-16.8-35.59-17.82-17.12-1.2-33.08,2.84-48.48,9.61-15.59,6.86-30.15,15.57-44.31,25.05-5.09,3.41-5.4,7.76-5.39,12.91,.06,50.33,.03,100.66,.03,150.98,0,26,.04,51.99-.02,77.99-.02,9.38-.12,9.45-9.39,9.51-12.33,.07-24.67-.13-36.99,.07-5.09,.08-7.44-1.78-7.04-6.97,.18-2.32,.02-4.66,.02-7,0-155.65,0-311.3,0-466.95,0-2.67,.11-5.34,.01-8-.13-3.47,1.29-5.62,4.67-6.69,14.29-4.5,28.55-9.1,42.83-13.61,3.59-1.13,5.88-.18,5.85,4.06-.02,3,.05,6,.05,9,0,65.66,0,131.32,0,196.98,0,3.63,0,7.27,0,12.9Z"/>
    <path class="cls-5" d="M1581.45,1840.73c-.44,41.27-6.77,74.62-24.21,105.22-26.55,46.61-66.16,71.54-120.33,72.54-30.48,.56-58.98-5.77-83.92-23.93-26.15-19.05-43.02-45-53.8-75.19-9.42-26.38-12.82-53.76-11.73-81.5,1.46-37.04,11.6-71.39,34.99-101.08,24.28-30.82,55.27-49.09,94.7-53.09,35.43-3.6,68.42,2.7,97.78,23.14,33.54,23.36,53.11,56.24,61.99,95.76,3.29,14.66,4.81,29.54,4.52,38.13Zm-58.72,7.49c-.09-9.31-.37-18.57-1.25-27.88-1.65-17.46-5.88-34.16-13.25-49.93-10.58-22.64-26.72-39.49-51.32-47.22-26.91-8.45-64.08-1.25-85.17,24.69-10.57,12.99-16.89,27.8-20.69,43.85-7.06,29.83-7.31,60.02-3.51,90.24,2.89,22.96,9.38,44.8,21.02,65.12,24.04,41.96,71.08,45.02,104.4,28.77,7.47-3.64,13.8-9.01,19.46-15.33,11.44-12.78,18.06-27.92,22.37-44.14,5.93-22.3,8.17-45.12,7.95-68.17Z"/>
    <path class="cls-5" d="M1629.29,1873.33c0-42.32,.22-84.64-.2-126.96-.08-7.72,2.74-11.93,8.77-16.19,34.06-24.06,71.29-39.84,112.79-45.44,29.88-4.03,59.21-3.08,87.07,9.52,23.8,10.77,41.5,27.65,48.24,53.83,1.9,7.37,2.79,15.01,2.78,22.71-.05,76.64-.03,153.29-.03,229.93,0,1.67-.09,3.34-.01,5,.19,4.1-1.47,6.14-5.81,6.11-14-.1-27.99-.09-41.99,0-4.07,.03-6.32-1.41-6.16-5.77,.1-2.66-.02-5.33-.02-8,0-69.31,.3-138.63-.14-207.94-.19-29.73-12.93-52.83-40.82-65.47-16.82-7.63-34.81-8.14-52.93-5.61-17.07,2.39-32.63,8.74-47.67,16.99-7.59,4.17-10.68,9.13-10.64,18.09,.35,81.64,.23,163.29,.18,244.93,0,13.46,1.85,12.74-13.03,12.76-10.33,.01-20.66,.06-30.99-.02-9.24-.07-9.35-.14-9.36-9.54-.04-42.99-.02-85.98-.02-128.96Z"/>
    <path class="cls-5" d="M853.59,1583.82c1.98,2.89,.93,6.31,.95,9.5,.12,27.94,.08,55.88,.08,83.82,0,2.33,.08,4.67-.06,6.99-.31,4.81,2.1,6.39,6.62,6.33,11-.14,22-.03,32.99-.02,4.67,0,9.34,.16,14-.02,4.63-.18,6.71,1.66,6.57,6.41-.19,6.33,.05,12.66-.05,18.99-.14,8.36-.2,8.5-8.31,8.57-13.66,.12-27.33,0-40.99,.05-10.72,.03-10.83,.07-10.83,10.19,.02,68.52,.12,137.03,.12,205.55,0,7.46,1.33,14.57,4.22,21.39,4.09,9.66,10.97,16.53,20.8,20.39,9.06,3.56,18.47,5.55,28.17,6.05,4.9,.25,7.21,2.27,6.91,7.41-.31,5.31-.13,10.66-.12,15.99,0,3.27-1.59,4.81-4.84,4.95-23.45,1.06-46.57,.42-68.18-10.66-24.23-12.43-37.38-32.26-40.3-59.09-.5-4.62-.58-9.31-.58-13.97-.04-65.32-.03-130.64-.02-195.96,0-13.34,.61-12.22-12.66-12.27-6-.02-12-.14-18,0-4.2,.1-6.18-1.82-6.21-5.91-.04-7.33,0-14.66-.06-21.99-.05-4.87,2.66-6.21,7.03-6.12,7.33,.14,14.67,.14,21.99-.01,7.62-.16,7.82-.27,7.86-8.01,.1-23.66,.03-47.32,.05-70.99,.01-10.06,.05-10.07,9.36-13.4,12.85-4.6,25.7-9.2,38.56-13.75,1.51-.53,3.05-1.46,4.95-.43Z"/>
    <path class="cls-1" d="M1191.41,1210.18c27.47,.43,58.06,19.04,58.66,58.11,.57,36.92-27.45,59.71-58.85,60.04-33.12,.35-59.66-26.91-59.19-59.71,.46-32.84,26.69-58.65,59.39-58.44Z"/>
    <polygon class="cls-2" points="1243.01 428.15 1243 428.15 1243 428.14 1243.01 428.15"/>
    <path class="cls-3" d="M1331.06,237.95c.46-3.36-.16-6.61-.91-9.88-6.94-30.34-23.18-54.98-46.43-75.16-24-20.83-51.96-34.68-81.81-44.9-57.29-19.63-116.8-25.51-176.77-27.37-43.25-1.35-86.49,.28-129.55,5.2-38.45,4.4-76.35,11.4-112.74,24.92-28.96,10.76-56.05,24.88-77.58,47.75-15.67,16.64-26.05,35.81-29.01,58.98-1,7.83,.59,15.2,.55,22.8-.26,43.98-.15,87.97-.11,131.96,.01,13.47-1.14,12.18,12.52,12.19,100.64,.03,201.28,.01,301.93,.01,2.66,0,5.34,.2,7.99-.02,4.98-.41,6.35,2.15,6.29,6.61-.13,9.33,0,18.66-.01,27.99-.03,14.39,.8,12.78-13.04,12.78-152.96,.03-305.93-.12-458.89,.1-51.06,.08-93.68,20.76-129.06,56.6-19.83,20.09-34.24,44.1-45.57,69.94-22.54,51.39-30.6,105.87-33.39,161.27-1.92,37.92-.71,75.83,3.1,113.67,3.41,33.87,9.04,67.29,19.15,99.78,13.86,44.47,34.13,85.42,69.82,116.81,29.22,25.69,62.83,40.85,102.53,40.51,28.33-.24,56.66-.04,84.98-.05,5.67,0,11.33,0,17-.02q10.56-.05,10.63-10.13c.02-2,.01-4,.01-6,0-48.33,.18-96.65-.07-144.97-.17-31.1,5.89-60.87,18.02-89.38,18.36-43.15,48.81-74.11,93.04-90.85,22.33-8.45,45.67-11.59,69.31-13.1,.99,.12,1.98,.33,2.97,.33,111.14,0,222.28,.05,333.41-.14,6.52-.01,13.35,1.01,19.62-2.11,11.24,.45,21.96-2.04,32.47-5.73,3.39,.13,6.59-.47,9.47-2.38,10.66-2.35,20.81-6,30.13-11.78,4.45-1.09,8.41-3.13,11.94-6.03,19.35-10.16,35.4-24.06,47.78-42.12,2.94-2.35,4.48-5.71,6.41-8.79,18.45-29.41,25.18-62.18,25.34-96.15,.48-104.17,.18-208.34,.14-312.51,0-3.59,.8-7.37-1.61-10.63Z"/>
    <path class="cls-1" d="M877.35,244.66c-.28,27.81-21.33,58.7-59.67,58.47-39.83-.25-59.98-33.28-58.99-60.08,.41-32.91,27.48-59.1,60.56-58.59,32.19,.49,58.42,27.82,58.1,60.2Z"/>
  </g>
</svg>