<?xml version="1.0" encoding="UTF-8"?>
<svg id="Calque_2" data-name="Calque 2" xmlns="http://www.w3.org/2000/svg" viewBox="0 0 2047.47 2339.77">
  <defs>
    <style>
      .cls-1 {
        fill: #fff;
      }

      .cls-2 {
        fill: #d83188;
      }
    </style>
  </defs>
  <g id="Calque_4" data-name="Calque 4">
    <g id="logo">
      <g>
        <path class="cls-2" d="M1296.08,23.97C751.21-105.52,187.57,302.54,37.16,935.41c-150.41,632.87,169.36,1250.89,714.23,1380.39,544.87,129.5,1108.51-278.56,1258.92-911.43C2160.72,771.49,1840.95,153.47,1296.08,23.97ZM716.98,913.71s-.04,.04-.07,.06c.02-.02,.04-.04,.07-.06Z"/>
        <path class="cls-1" d="M1248.76,993.64c31.98,11.37,67.56-1.26,85.32-30.18l317.88-517.44c15.93-25.93,2.73-59.93-26.55-68.25-182.14-51.76-754.2-176.61-1090.96,178.1,74.71,84.54,164.89,144.39,164.89,144.39,0,0-71.15,114.06-53.35,219.63,.16,.92-.5,1.78-1.43,1.86-101.33,9.09-197.68,18.88-197.68,18.88,0,0-134.49,209,246.22,486.75,119.61,87.27,280.52,182.21,261.31,243.75-19.22,61.54-230.08-13.32-285.59-73.77-75.7,71.68-289.55,287.91-279.83,314.92,9.72,27.01,631.09,611.94,1051.95-14.99,148.21-220.78,49.91-701.45-351.69-880.39-.02,0-.11-.09-.24-.21-7.42-6.84,9.01-36.46,12.46-41.41,16.07-23.03,92.76-1.04,147.29,18.35Z"/>
      </g>
    </g>
  </g>
</svg>